<?xml version="1.0" encoding="utf-8"?>
<svg xmlns="http://www.w3.org/2000/svg" xmlns:xlink="http://www.w3.org/1999/xlink" width="400" height="212" viewBox="0 0 400 212"
	 style="enable-background:new 0 0 400 212;" xml:space="preserve">
<style type="text/css">
	.st0{fill:url(#SVGID_1_);}
	.st1{fill:url(#SVGID_2_);}
	.st2{fill:url(#SVGID_3_);}
	.st3{fill:url(#SVGID_4_);}
	.st4{fill:url(#SVGID_5_);}
	.st5{fill:url(#SVGID_6_);}
	.st6{fill:url(#SVGID_7_);}
	.st7{fill:url(#SVGID_8_);}
	.st8{fill:url(#SVGID_9_);}
	.st9{fill:url(#SVGID_10_);}
	.st10{fill:url(#SVGID_11_);}
	.st11{fill:url(#SVGID_12_);}
	.st12{fill:url(#SVGID_13_);}
	.st13{fill:url(#SVGID_14_);}
	.st14{fill:url(#SVGID_15_);}
	.st15{fill:#384160;}
	.st16{fill:#181C32;}
	.st17{fill:url(#SVGID_16_);}
	.st18{fill:#1C203A;}
	.st19{fill:#121319;}
	.st20{fill-rule:evenodd;clip-rule:evenodd;fill:#1C203A;}
	.st21{fill:#F4771A;}
	.st22{fill:url(#SVGID_17_);}
	.st23{fill:#F67E19;}
	.st24{fill:url(#SVGID_18_);}
	.st25{fill:#F57B18;}
	.st26{fill:url(#SVGID_19_);}
	.st27{fill:#F78119;}
	.st28{fill:url(#SVGID_20_);}
	.st29{fill:url(#SVGID_21_);}
	.st30{fill:#F67818;}
	.st31{fill:url(#SVGID_22_);}
	.st32{fill:url(#SVGID_23_);}
	.st33{fill:url(#SVGID_24_);}
	.st34{fill:#F6901B;}
	.st35{fill:#FAC121;}
	.st36{fill:url(#SVGID_25_);}
	.st37{fill:#F8A71E;}
	.st38{fill:url(#SVGID_26_);}
	.st39{fill:url(#SVGID_27_);}
	.st40{fill:#F68119;}
	.st41{fill:url(#SVGID_28_);}
	.st42{fill:url(#SVGID_29_);}
	.st43{fill:url(#SVGID_30_);}
	.st44{fill:url(#SVGID_31_);}
	.st45{fill:url(#SVGID_32_);}
	.st46{fill:url(#SVGID_33_);}
	.st47{fill:url(#SVGID_34_);}
	.st48{fill:url(#SVGID_35_);}
	.st49{fill:url(#SVGID_36_);}
	.st50{fill:url(#SVGID_37_);}
	.st51{fill:url(#SVGID_38_);}
	.st52{fill:url(#SVGID_39_);}
	.st53{fill:url(#SVGID_40_);}
	.st54{fill:#FEFF28;}
	.st55{fill:#FFFFFF;}
	.st56{fill:url(#SVGID_41_);}
	.st57{fill:url(#SVGID_42_);}
	.st58{fill:#FFB449;}
	.st59{fill:url(#SVGID_43_);}
	.st60{fill:url(#SVGID_44_);}
	.st61{fill:url(#SVGID_45_);}
	.st62{fill:url(#SVGID_46_);}
	.st63{fill:url(#SVGID_47_);}
	.st64{fill:#FF8349;}
	.st65{fill:url(#SVGID_48_);}
	.st66{fill:url(#SVGID_49_);}
	.st67{fill:url(#SVGID_50_);}
	.st68{fill:url(#SVGID_51_);}
	.st69{fill:url(#SVGID_52_);}
	.st70{fill:url(#SVGID_53_);}
	.st71{fill:url(#SVGID_54_);}
	.st72{fill:url(#SVGID_55_);}
	.st73{fill:url(#SVGID_56_);}
	.st74{fill:url(#SVGID_57_);}
	.st75{fill:url(#SVGID_58_);}
	.st76{fill:url(#SVGID_59_);}
	.st77{fill:url(#SVGID_60_);}
	.st78{fill:url(#SVGID_61_);}
	.st79{fill:url(#SVGID_62_);}
	.st80{fill:url(#SVGID_63_);}
	.st81{fill:url(#SVGID_64_);}
	.st82{fill:url(#SVGID_65_);}
	.st83{fill:url(#SVGID_66_);}
	.st84{fill:url(#SVGID_67_);}
	.st85{fill:url(#SVGID_68_);}
	.st86{fill:url(#SVGID_69_);}
	.st87{fill:url(#SVGID_70_);}
	.st88{fill:url(#SVGID_71_);}
	.st89{fill:url(#SVGID_72_);}
	.st90{fill:url(#SVGID_73_);}
	.st91{fill:url(#SVGID_74_);}
	.st92{fill:url(#SVGID_75_);}
	.st93{fill:url(#SVGID_76_);}
	.st94{fill:url(#SVGID_77_);}
	.st95{fill:url(#SVGID_78_);}
	.st96{fill:url(#SVGID_79_);}
	.st97{fill:url(#SVGID_80_);}
	.st98{fill:url(#SVGID_81_);}
	.st99{fill:url(#SVGID_82_);}
	.st100{fill:url(#SVGID_83_);}
</style>
					<linearGradient id="SVGID_1_" gradientUnits="userSpaceOnUse" x1="198.7879" y1="92.681" x2="198.7879" y2="3.7992">
						<stop  offset="0" style="stop-color:#384160"/>
						<stop  offset="0.1919" style="stop-color:#3B4566"/>
						<stop  offset="0.4386" style="stop-color:#435076"/>
						<stop  offset="0.7153" style="stop-color:#516190"/>
						<stop  offset="1" style="stop-color:#6479B3"/>
					</linearGradient>
					<path class="st0" d="M317.1,21.4c-1.3-5,0.8-10.4,0.8-10.4c-15.8-3.8-29.2-2.5-29.2-2.5c0-1.3,0-3.1,0-3.1
						c-23-5.7-38.5-5.3-38.5-5.3c-4.4,7.4-9.2,17.5-9.2,17.5c-14.1-2.6-23.2-2.3-23.2-2.3c-3.2,6.6-5.5,14.5-5.5,14.5l-9.2-1.8
						l-2.5-11.9c-17.8,0.8-34,4-34,4c0.1,4.8,1.3,8.4,1.3,8.4l-5.7,0.8c-2.5-6.8-4.4-10.6-4.4-10.6c-1.7-0.2-6.1-0.4-6.1-0.4
						c-3.7-8.3-6-13.4-6-13.4l-12,0.3c-2.7-3.7-4.5-5.1-4.5-5.1c-17.3-0.5-34.8,2-34.8,2c2.2,21-23.7,25.1-29,37.5
						s15.3,15.2,15.3,15.2c-9,1.6-18.8,4.9-23.1,6.5c3,3.2,6.7,7.3,9.8,10.9c2.7,1.7,5,3.2,5.8,3.8c0.5,0.4,1.2,0.9,2.1,1.6
						c0.5-1,1.1-1.8,2-2.3c0,0,8,6.9,14.2,13l-1.8,0.2c0.8,0.6,1.6,1.2,2.3,1.7c4.1,3,12,3.2,19.3,0.7l-0.9-3.3
						c0.6,0.5,1.8,1.4,3,2.5c3.9-1.6,7.5-4.1,10.1-7.3c0,0,9.5,4,22.7-5.9l-1,4.9c0,0,12.4-3.1,17.4-4.6l1.5-5.3c0,0,1,4,1.2,4.8
						c0,0,35.7,10.1,44.1,1.7c0,0,11.7,5.6,17.4-6.7c0,0,12.2,17,22.4,2.4c0,0,4.4,0.5,10.9,0.4c0,0-0.6,1.5-2,3.8
						c0,0,19.2,1.1,30.2,6.1c0,0,0.7-3,0.8-5.5c0,0,6.3,2.4,10.1,6.4c3.3,3.5,15.7,10.8,27.1-0.2l10.2-30.9c1.4,1.8,2.1,5.3,2.5,8.8
						c1-3.3,1.2-6,1.1-8.1c-1.2-7.6-5.2-10.9-12.4-18.3C320.3,29.3,318.4,26.4,317.1,21.4z M103,40.8c0,0-0.5,1.9-0.9,4.4
						C102.1,45.2,96.9,43.7,103,40.8z M100.7,61.7c-3.7,0.2-10.9-5.6-10.9-5.6s9.4,1.6,11.7,2.2C103.9,58.9,104.4,61.6,100.7,61.7z
						 M133.1,38c-5.4-4.4-0.8-13.2-0.8-13.2C139.2,31.3,133.1,38,133.1,38z M223.6,46c-1.2,1.2-3.5-1.9-3.5-1.9s-1.4,3.2-2.6,1.8
						c-1.2-1.4,1.9-7.8,1.9-7.8C221.1,42.3,224.7,44.9,223.6,46z M294.1,31.4c0,0,1.2,6.8,3.4,10.4
						C297.5,41.9,289.7,44.6,294.1,31.4z M296.8,57.8c0,0,3.9-0.8,8.1-4.8c0,0,3.2,3.5,5.4,6.4C312.5,62.3,309.6,65.3,296.8,57.8z"
						/>
					<linearGradient id="SVGID_2_" gradientUnits="userSpaceOnUse" x1="199.9999" y1="181.169" x2="199.9999" y2="50.8674">
						<stop  offset="0" style="stop-color:#384160"/>
						<stop  offset="0.1919" style="stop-color:#3B4566"/>
						<stop  offset="0.4386" style="stop-color:#435076"/>
						<stop  offset="0.7153" style="stop-color:#516190"/>
						<stop  offset="1" style="stop-color:#6479B3"/>
					</linearGradient>
					<path class="st1" d="M399.3,134.9c-3.4-5.8-15.4-5.6-15.4-5.6c7.9-1,10.9-2.3,10.9-2.3c-22.4-21.8-11.7-46.5-11.7-46.5
						l-10.3,0.6c3-6.1,3.6-10.8,3.6-10.8C360,64.6,348,59.5,342.9,57.2c-2.7-1.2-6.3-2.8-6.3-2.8s2.9,13.2-0.3,23.9
						C333,89,319,98.6,319,98.6c2.2-4.4,5.2-7.7,5.2-7.7c-26.8-6.3-39.5-4.3-39.5-4.3c-1.8,4.4-2,7.7-2,7.7l-4.3,1.7
						c0.2-5.2,0.2-8.7,0.2-8.7l-11.5,4.2l1.1-3.9c-15.5-4.8-35.5-5-38.1-5.1c1.1,1.9,2,4.1,2,4.1c-19.9-2.9-37.7-1.1-37.7-1.1
						c0.1,1.5,0.7,3.7,0.7,3.7c-8.3,1.5-16.4,3.6-16.4,3.6c1.4-2.3,3.7-5.2,3.7-5.2c-21.5-3.5-43.7-3.6-43.7-3.6
						c-0.7,2.5-0.6,6.2-0.6,6.2c-3.2,0-9.7-0.4-9.7-0.4l0.4,7L117.7,94c-1.5,2.4-3.1,7.1-3.1,7.1c-0.2-7.3-4.3-13.5-4.3-13.5
						c-18.7-0.5-35.8,2.2-35.8,2.2c-0.8-7.8,2.7-14.6,2.7-14.6c-6.7-2.3-20.3-5.8-20.3-5.8c-0.7-4.6-1.8-8.1-2.8-10.4
						c-1.2-2.4-2.2-3.8-2.2-3.8C39.1,63.6,16,72.6,16,72.6C33.6,107-3.7,124.2,0.3,136.3c4,12.1,32,10.5,32,10.5
						c-0.9,9.4-1.3,18.4-1.3,18.4c16.6,13.1,31.4,16.4,31.4,16.4l-0.6-6.5c5.5,2,10.4,3.6,14.6,4.9c2.5,0.6,15.3,2.9,20.8-10.6
						c0,0,15.8,7,24.8-12.1l1.9,4.2c0,0,11.9,2.4,19.3,3.1l-1.5-5.7c0,0,9.7,0.4,19.1,0.1c0,0-1.2,2.1-3.7,5.3
						c0,0,15.2,1.7,26.4,2.5c0,0,5.1-6.4,6.4-8.1c0,0,1.4,3.6,3.2,6.1c0,0,12.3-2.2,20.1-4l-0.3-5.2c0,0,3,4.9,5.1,7.4
						c0,0,24-3.8,52.3,1.8c0,0,0.4-2.8,0.4-3.7c0,0,11-1.5,17-1.3c0,0-1.3,1.4-2.7,2.6c0,0,16.7,4.3,31.9,9.2c0,0,1.8-2.1,2.5-3.1
						c0,0,3.8,1.6,9.7,5.6c5.9,4,16.1,5.8,26.5,2l-3,1.2c10.6-2.5,19.4-7.2,28.7-13.9C392.6,155.3,402.8,140.8,399.3,134.9z"/>
					<linearGradient id="SVGID_3_" gradientUnits="userSpaceOnUse" x1="100.0952" y1="89.6097" x2="100.0952" y2="37.0604">
						<stop  offset="0.2246" style="stop-color:#E02726"/>
						<stop  offset="0.6046" style="stop-color:#ED8D26"/>
						<stop  offset="1" style="stop-color:#FEFF28"/>
					</linearGradient>
					<path class="st2" d="M118.6,52.1c-13.7-3.6-20.5-4.7-21-8.2C97,40.4,103.8,37.3,110,31c0,0-2.7,5.2-4,12.8
						c0,0,7.5-0.2,21.9-5.4c0,0-2.4-4,0.3-11c2.7-7,10.3-18.7,11.2-19.7c0,0-6.8-0.1-12.8,0.4c0,0-5.2,5.8-8,9.4
						c0,0,3.2-5.3,6.2-12.6L124.6,5c0,0-12.3,0.6-25.8,3.2c0,0,0.1,9.8-16.5,20.1c-16.6,10.3-16.2,18.9,0.8,23.2
						c17,4.3,25.6,4.8,25.9,8.6c0.3,3.7-8.5,9.9-21-2.3c0,0-1.3,0.8-2.6,1.7c0,0-2.6-2-3.6-2.5c0,0-10,3.6-21,7.9
						c1.8,1.1,4.3,2.5,6.7,3.8l15-7.3c0,0-5.1,3.6-9.7,7.3c0,0,11.2,9,18.6,13.5c7.4,4.5,21.6,5.4,33.9-7.5
						C137.7,61.8,132.3,55.7,118.6,52.1z"/>
					<linearGradient id="SVGID_4_" gradientUnits="userSpaceOnUse" x1="149.3317" y1="89.6097" x2="149.3317" y2="37.0604">
						<stop  offset="0.2246" style="stop-color:#E02726"/>
						<stop  offset="0.6046" style="stop-color:#ED8D26"/>
						<stop  offset="1" style="stop-color:#FEFF28"/>
					</linearGradient>
					<path class="st3" d="M174.9,38.3c0,0-14.7,1.1-18,1.4c0,0-0.7,3.5-1.6,9c0,0-1.1-0.2-2.8-0.4c0,0-1.1,6.6-1.6,10.2
						c0,0-4.2,5-7.2,3.4c-3-1.6,5.4-14.7,7.4-18.9c2-4.3,5.4-13.6,3.4-20.8c0,0-11.7,0.4-17.7,1c0,0,4.8,4.8,2,11.8
						c-2.8,7.1-7.2,9.2-14.9,16.7c0,0,10.4,2.6,11.9,8c1.4,5.4-2.2,12.2-6.7,17.6c0,0,12.8,0.8,21.4-9.6c0,0-0.6,6.2-0.7,8
						c0,0,4.7-0.4,9.7-1.5c0,0,3.6-13.2,8.3-24.1c0,0,0.4-1,0.9-2.1l1.9-0.3C170.4,47.8,172.6,42.6,174.9,38.3z"/>
					<linearGradient id="SVGID_5_" gradientUnits="userSpaceOnUse" x1="188.7136" y1="89.6097" x2="188.7136" y2="37.0604">
						<stop  offset="0.2746" style="stop-color:#E02726"/>
						<stop  offset="0.6546" style="stop-color:#ED8D26"/>
						<stop  offset="1" style="stop-color:#FEFF28"/>
					</linearGradient>
					<path class="st4" d="M201.3,57.8c-4.9-0.4-11.2-0.6-11.2-0.6c3.5-0.3,13.2-2.7,13.2-7.3c0-4.6-4.1-5.5-7.7-13.5
						c-3.6-8-1.1-15.7-1.1-15.7c-12.9,0.1-24.9,1.7-24.9,1.7c0.8,4.9,3,9.4,3,9.4c-3.6-0.3-6.7-0.2-6.7-0.2
						c-0.1,2.5-0.2,4.1-0.2,4.1c2.2,0,12.3,0.6,12.3,0.6l-4.5,14.3l-3.5,0.5c-1.7,4.6-3.3,9.7-3.3,9.7c0.3,4,1.4,12.3,1.4,12.3
						c25.5,5.7,40.3,4.2,42.8-4.4S206.3,58.2,201.3,57.8z"/>
					<linearGradient id="SVGID_6_" gradientUnits="userSpaceOnUse" x1="224.8518" y1="89.6097" x2="224.8518" y2="37.0604">
						<stop  offset="0.3246" style="stop-color:#E02726"/>
						<stop  offset="0.6546" style="stop-color:#ED8D26"/>
						<stop  offset="1" style="stop-color:#FEFF28"/>
					</linearGradient>
					<path class="st5" d="M241.1,44.5c-3-6.6-0.9-13.9-0.9-13.9l-10.2-2.1l9.7-0.9c1.4-3.5,3.4-6.4,3.4-6.4
						c-14.2-1.3-22.2-0.5-22.2-0.5c-1.8,5.2-1.5,8.6-1.5,8.6l2.2-0.3c0,7.3,2.5,11.9,5,15.8c2.5,3.9,10.4,10.6,6,11.7
						c-4.4,1.1-11.3-9-11.3-9s-3.5,8.8-6.6,6.4c-3.1-2.4,2.1-17.9,2.1-17.9c-6.7-1.8-12-3.2-12-3.2c-2.2,2.7-4.1,6.1-4.1,6.1
						c1.5,3.3,6.5,6.3,6,11.3c-0.5,5-6.2,5.9-6.2,5.9c23.3-0.2,11.8,19.2,11.8,19.2c12,1.2,11.7-13.5,11.7-13.5
						c13.4,21.3,24.5,9.7,25.2,3C249.9,57.9,244,51.1,241.1,44.5z"/>
					<linearGradient id="SVGID_7_" gradientUnits="userSpaceOnUse" x1="264.4128" y1="89.6097" x2="264.4128" y2="37.0604">
						<stop  offset="0.2746" style="stop-color:#E02726"/>
						<stop  offset="0.6046" style="stop-color:#ED8D26"/>
						<stop  offset="1" style="stop-color:#FEFF28"/>
					</linearGradient>
					<path class="st6" d="M270.9,48.2c-12.8-13.4-10.4-23.1-10.4-23.1c-2.9-1.3-7.1-2.1-7.1-2.1c-7.1,9.1-9.6,20.7-9.6,20.7
						c0.7,2.5,4.9,8,7.7,14.9s-0.7,12.7-0.7,12.7c5.1-0.6,10.4-0.7,10.4-0.7c-2.3-3.6-3.5-8.3-3.5-8.3c3-0.9,5.8-1.6,8.2-2.1
						c0.3,1.1,0.5,2.2,0.6,3.3l0,0c0,0.3,0,0.6,0.1,1c0,1,0,1.9-0.1,2.8c-0.1,1.3-0.4,2.6-0.6,3.7c-0.6,2.4-1.2,4-1.2,4l0,0
						c0,0,0,0,0,0c10.5-0.9,20.5,0.9,20.5,1C284.7,67.5,283.7,61.6,270.9,48.2z"/>
					<linearGradient id="SVGID_8_" gradientUnits="userSpaceOnUse" x1="295.5382" y1="89.6097" x2="295.5382" y2="37.0604">
						<stop  offset="0.2246" style="stop-color:#E02726"/>
						<stop  offset="0.6046" style="stop-color:#ED8D26"/>
						<stop  offset="1" style="stop-color:#FEFF28"/>
					</linearGradient>
					<path class="st7" d="M319,33.5c-10.7-9.9-8.2-19.5-8.2-19.5c-5.8-1.9-13.5-2.7-13.5-2.7c-2.6,21.6,6.9,32.3,6.9,32.3
						c-1.5,0.9-6.5,3.8-11.7,1.4c-5.2-2.4-2.5-11.7-1.3-20.1c1.2-8.4-1-11.8-1-11.8c-2.7-0.6-4.2-0.6-4.2-0.6c-0.2-2.9-0.8-5-0.8-5
						c-18.7-3.4-28.1-4.5-28.1-4.5c3.4,3.4,5.5,7.8,5.5,7.8c6.2,0.4,15.3,1,15.3,1c-6.3,0.4-10.9,1.3-10.9,1.3
						c1.9,1.9,4.4,7,3.4,15.2c-1,8.2-1,12.7-1,12.7c2.7,5.4,11,13.4,11,13.4c16.7,3.4,26.7-7.4,26.7-7.4c6.6,7.8,14.3,11,9.7,16.7
						c-4.6,5.6-15.6-1-15.6-1l-1,1.9c-4.6-2.6-8.2-4.4-8.2-4.4c-4.9,1-7,1.6-7,1.6c3.2,5.5,4.2,13.5,4.2,13.5l9.3-7.5l-4.6,7.5
						c8.3,3.3,14.1,11.5,23,8.5c8.9-3,16.7-19.2,17-27.9C334.2,47.5,329.7,43.4,319,33.5z"/>
					<linearGradient id="SVGID_9_" gradientUnits="userSpaceOnUse" x1="54.5799" y1="166.2889" x2="54.5799" y2="94.4501">
						<stop  offset="0" style="stop-color:#E02726"/>
						<stop  offset="0.2883" style="stop-color:#ED8D26"/>
						<stop  offset="0.8487" style="stop-color:#FEFF28"/>
					</linearGradient>
					<path class="st8" d="M94,127.5c-10.6-4.4-39.9,7-50.5,4.9c-10.6-2.1,3.9-12,7.9-23.3c0,0-0.1,9.3,2.2,16.6l30.3-12.2
						c0,0-17.4-6.3-13.2-34.4c0,0-4.9-2.5-13.1-5.8c0,0-1.8,3.8-3.3,8.1c0,0,0-10.6-2.8-16.2c0,0-14.9,4.4-28.3,9.9
						c0,0,6.5,14.6,1.3,27.8c-5.2,13.1-16.8,21.7-14.4,30.7c2.4,9,24.7,7.2,36.2,5.8c11.5-1.4,29.7-4.1,29.8,2.9
						c0,7-10.2,12.6-32.6,5l0.6,2.4c0,0-3.9-0.8-8.1-2.4l1.1,17.1c0,0,4.9,2.9,11.4,5.9c0,0-2-9.7-2.8-16l4.4,11.4
						c0,0,26.4,12.2,37,5.6C97.9,164.5,104.6,131.9,94,127.5z"/>
					<linearGradient id="SVGID_10_" gradientUnits="userSpaceOnUse" x1="109.9427" y1="166.2889" x2="109.9427" y2="94.4501">
						<stop  offset="9.164622e-02" style="stop-color:#E02726"/>
						<stop  offset="0.3383" style="stop-color:#ED8D26"/>
						<stop  offset="0.8487" style="stop-color:#FEFF28"/>
					</linearGradient>
					<path class="st9" d="M139.4,101.6c-6.8-1.4-19.6-3.1-19.6-3.1c-5.7,16.6-1,38.7-1,38.7s-1.7,6.6-5.9,3.9
						c-4.2-2.7-4.1-11.1-1.7-20.9c2.4-9.8,2.4-16.2,2.4-16.2c-1.7,0.2-3.2,0.5-3.2,0.5c0.3-9.1-2.6-14-2.6-14
						c-12.8-0.2-27.2,3.1-27.2,3.1c5.8,6.6,6.1,11.9,6.1,11.9l15.6,0.6c-5.4,1.3-11.3,3.2-11.3,3.2C92.6,113.7,90,123,90,123
						c22.9-0.4,9.6,40.2,9.6,40.2c14.3,6.8,22.6-13,22.6-13c0.7,2.6,3,7.5,3,7.5c5.2,0.9,12.8,1,12.8,1
						C125.4,123.5,139.4,101.6,139.4,101.6z"/>
					<linearGradient id="SVGID_11_" gradientUnits="userSpaceOnUse" x1="163.2565" y1="166.2889" x2="163.2565" y2="94.4501">
						<stop  offset="0.1" style="stop-color:#E02726"/>
						<stop  offset="0.3883" style="stop-color:#ED8D26"/>
						<stop  offset="0.8487" style="stop-color:#FEFF28"/>
					</linearGradient>
					<path class="st10" d="M180.1,137.2c-7.5,0.7-11.7,0.4-11.7,0.4s15.5-2.1,16.2-9.7c0.7-7.6-8.1-9.8-14-19.4
						c-5.8-9.6,1.7-19.3,1.7-19.3c-15.3-1.6-29.5-0.6-29.5-0.6c-0.1,2.8,0.3,4.3,0.5,5.4c-4.5-0.2-7.8-0.4-10.9-0.8
						c0.3,2.6,0.7,4.6,0.7,4.6l11.3,3c-6,10.2-8,21.4-8,21.4c1.4,6.3,7.4,33.2,7.4,33.2c8.4-0.5,20.8-2.1,20.8-2.1
						c-3-5.3-4.9-10.3-4.9-10.3c1.8-0.3,9-1.1,11.1,2c2.1,3.1-5.8,15-5.8,15l18.2-0.4c0,0,10.2-11.5,10.5-17.2
						C194.3,136.8,187.6,136.6,180.1,137.2z"/>
					<linearGradient id="SVGID_12_" gradientUnits="userSpaceOnUse" x1="207.2603" y1="166.2889" x2="207.2603" y2="94.4501">
						<stop  offset="0.15" style="stop-color:#E02726"/>
						<stop  offset="0.4383" style="stop-color:#ED8D26"/>
						<stop  offset="0.8487" style="stop-color:#FEFF28"/>
					</linearGradient>
					<path class="st11" d="M220.8,133l-13.3,0.1c0.9-11,2.2-17.2,2.2-17.2c2.9,6.6,5.7,10,5.7,10l20.3-3
						c-11.1-16.2-4.4-33.1-4.4-33.1c-14.1-1-29.9,0-29.9,0c-0.1,4.3,1.2,7.7,1.2,7.7c-2.6-2.7-4.5-4.1-4.5-4.1
						c-8.5,1.3-19.4,3.5-19.4,3.5c3.5,3.8,9.4,10.8,10.1,21.5c0.7,10.7,0.9,16.3,0.9,16.3c15.2,1.8,3.3,19.3,3.3,19.3
						c0.9,2.6,2,5.7,2,5.7l13.8-2.7c-1.7-5.6-2-12.6-2-12.6l16.4-6.8C222.2,135.1,220.8,133,220.8,133z"/>
					<linearGradient id="SVGID_13_" gradientUnits="userSpaceOnUse" x1="243.7149" y1="166.2889" x2="243.7149" y2="94.4501">
						<stop  offset="0.15" style="stop-color:#E02726"/>
						<stop  offset="0.4383" style="stop-color:#ED8D26"/>
						<stop  offset="0.8487" style="stop-color:#FEFF28"/>
					</linearGradient>
					<path class="st12" d="M236.8,148.2c0-0.7-0.2-3,5.9-4.4c6.2-1.3,14.4-0.9,14.4-0.9c1-1.7,1.4-4.5,1.4-4.5s-5.9-0.5-8-1
						c-2.1-0.4-8-0.9-3.6-6.3c4.4-5.3,8.1-12.3,8.1-12.3c1.2,5.1-0.6,13.2-0.6,13.2l10.6-1.3c9.2-19.6,8.2-36.4,8.2-36.4
						c-3.4,0.7-7.7,1.5-11.5,2.2c0.2-0.9,0.5-1.9,0.7-2.6c0,0,0,0,0,0c0.4-1.7,0.7-3,0.7-3c-11.4-2.3-25.4-2.8-25.4-2.8
						c6.6,12.4-2.1,27.4-2.1,27.4c1.3,4.6,3.6,9.1,3.6,9.1l-8.5,2c-8.5,12.6,11.1,14.2,11.1,14.2c-12.8-0.3-23.9,0.9-26.9,4.7
						c-3,3.9,3.9,13.7,3.9,13.7c24-3.7,47-0.3,47-0.3c-0.4-4.4-1.2-7.4-1.2-7.4C246.5,148.6,236.8,148.2,236.8,148.2z"/>
					<linearGradient id="SVGID_14_" gradientUnits="userSpaceOnUse" x1="296.7249" y1="166.2889" x2="296.7249" y2="94.4501">
						<stop  offset="0.15" style="stop-color:#E02726"/>
						<stop  offset="0.4383" style="stop-color:#ED8D26"/>
						<stop  offset="0.8487" style="stop-color:#FEFF28"/>
					</linearGradient>
					<path class="st13" d="M325.5,147.3c-2.1-6-22.4-5.3-22.4-5.3c13.4-2.9,20.3-9.3,19.8-14.4c-0.6-5.1-10.2-11.2-10.6-19.6
						c-0.4-8.5,3.8-14.7,3.8-14.7c-15.2-3.9-28.2-3.4-28.2-3.4c-1.2,3.6-1.1,9.9-1.1,9.9c-3.5,0.6-10.2,2.1-10.2,2.1
						c-2.3,17.8-9,30.7-9,30.7c1.7,12.5,7.1,23.6,7.1,23.6c7.7-0.8,12.3-0.7,12.3-0.7c-0.8-6.2-0.7-9.7-0.7-9.7s15.7-0.4,17,3.8
						c1.3,4.1-10.6,11.4-10.6,11.4l22.6,4.4C315.3,165.3,327.6,153.2,325.5,147.3z"/>
					<linearGradient id="SVGID_15_" gradientUnits="userSpaceOnUse" x1="355.4762" y1="166.2889" x2="355.4762" y2="94.4501">
						<stop  offset="0.1" style="stop-color:#E02726"/>
						<stop  offset="0.3883" style="stop-color:#ED8D26"/>
						<stop  offset="0.8487" style="stop-color:#FEFF28"/>
					</linearGradient>
					<path class="st14" d="M393.8,137.5c-2.6-7.5-16.3-6-24.7-5.8c-8.4,0.2-24.2,0.2-27.3-2.8s-0.7-6.4,4.1-11
						c4.8-4.6,7.8-8.8,7.8-8.8c-1.2,6.6-1.5,11.2-1.5,11.2c21.1,3.9,32.7,4.3,32.7,4.3c-15-20.1-6.3-40.6-6.3-40.6l-10.2,0.2
						c2.2-5.4,1.7-10.1,1.7-10.1c-12.2-4.9-27.2-8.3-27.2-8.3c3,17.2-14.4,29.3-20.2,35.5c-5.8,6.2-5.9,11.6-5.9,11.6
						c2.3,4.7,7.2,8.2,9.1,12s-0.8,7.1-0.8,7.1c10.3,8.3,38.4,2.8,38.7,8.2c0.3,5.4-10.8,11.9-17.6,12.2c-6.7,0.4-9-3.4-9-3.4
						c-2.4,2.3-7.1,8.2-7.1,8.2l6.1-11.9c-4.5-4.1-7.6-8.2-7.6-8.2l-5.8,4.9c0,0,3.6,0.6,5.2,4.4c1.8,3.9-3,13.1-3,13.1l3,1.4
						c-0.7,1-1.5,2.7-1.5,2.7c5.2,2.2,5.9,4.4,12.9,7c7,2.6,21-0.8,33.2-7.6C384.9,156.3,396.4,145,393.8,137.5z"/>
					<path class="st15" d="M257.4,44.9c-2.2,4.7-1.3,10.7-1.3,10.7c3-1.3,6.8-2.6,6.8-2.6C259.8,49.6,257.4,44.9,257.4,44.9z"/>
					<path class="st15" d="M178.7,45.6c0,0,0.4,5.5,1.5,8.7c0,0,4.3,0.5,4.7-1.5C185.2,50.8,181.5,49.4,178.7,45.6z"/>
					<path class="st15" d="M181.6,61.3c0,0,0.6,2.7,1.7,5.7c0,0,6.9,1.4,8.3-1.7C192.9,62.3,186.6,61.9,181.6,61.3z"/>
					<path class="st15" d="M165,130.8c-0.1-2.4-3.8-3.9-8.2-7.6c-4.3-3.7-6.5-7.5-6.5-7.5c2.2,8.6,6.4,18.2,6.4,18.2
						C161.1,134.8,165.1,133.1,165,130.8z"/>
					<path class="st15" d="M292.5,128.2c-3.1-4.1-4-9.1-4-9.1c-2.6,10.2-2.3,21.6-2.3,21.6c6.1,0.4,11-1.9,11.4-4.2
						C298,134.2,295.7,132.4,292.5,128.2z"/>
				<path class="st16" d="M299.3,85.6c-3.8-4-10.1-6.4-10.1-6.4c-0.1,2.5-0.8,5.5-0.8,5.5c-11.1-5-30.2-6.1-30.2-6.1
					c1.5-2.3,2-3.8,2-3.8c-6.5,0.1-10.9-0.4-10.9-0.4c-10.2,14.6-22.4-2.4-22.4-2.4c-5.7,12.2-17.4,6.7-17.4,6.7
					c-8.4,8.4-44.1-1.7-44.1-1.7c-0.2-0.8-1.2-4.8-1.2-4.8l-1.5,5.3c-5,1.5-17.4,4.6-17.4,4.6l1-4.9c-13.2,9.9-22.7,5.9-22.7,5.9
					c-2.6,3.2-6.2,5.6-10.1,7.3c1.9,1.6,3.9,3.4,4.4,3.9l11.2,2.8l-0.4-7c0,0,6.6,0.4,9.7,0.4c0,0-0.1-3.7,0.6-6.2
					c0,0,22.1,0.1,43.7,3.6c0,0-2.3,3-3.7,5.2c0,0,8.1-2.1,16.4-3.6c0,0-0.6-2.1-0.7-3.7c0,0,17.8-1.8,37.7,1.1c0,0-0.9-2.3-2-4.1
					c2.6,0.1,22.6,0.3,38.1,5.1l-1.1,3.9l11.5-4.2c0,0,0,3.5-0.2,8.7l4.3-1.7c0,0,0.2-3.3,2-7.7c0,0,5.2-0.8,16,0.2
					C300.1,86.4,299.6,85.9,299.3,85.6z"/>
				<linearGradient id="SVGID_16_" gradientUnits="userSpaceOnUse" x1="215.9977" y1="217.2296" x2="215.9977" y2="167.8947">
					<stop  offset="0" style="stop-color:#111323"/>
					<stop  offset="1" style="stop-color:#1C203A"/>
				</linearGradient>
				<path class="st17" d="M329.1,174.2c-5.9-4-9.7-5.6-9.7-5.6c-0.7,1-2.5,3.1-2.5,3.1c-15.2-4.9-31.9-9.2-31.9-9.2
					c1.3-1.2,2.7-2.6,2.7-2.6c-6-0.2-17,1.3-17,1.3c-0.1,0.9-0.4,3.7-0.4,3.7c-28.3-5.6-52.3-1.8-52.3-1.8c-2-2.5-5.1-7.4-5.1-7.4
					l0.3,5.2c-7.8,1.7-20.1,4-20.1,4c-1.9-2.6-3.2-6.1-3.2-6.1c-1.3,1.7-6.4,8.1-6.4,8.1c-11.1-0.8-26.4-2.5-26.4-2.5
					c2.4-3.1,3.7-5.3,3.7-5.3c-9.4,0.2-19.1-0.1-19.1-0.1l1.5,5.7c-7.5-0.8-19.3-3.1-19.3-3.1l-1.9-4.2c-9,19.1-24.8,12.1-24.8,12.1
					C91.7,182.8,79,180.6,76.4,180c16,4.9,23.6,5.3,23.6,5.3c0,1.1-0.2,2.2-0.5,7.7c-0.3,5.5,5.1,3.7,4.8-0.1
					c-0.3-3.9-0.1-7.9-0.1-7.9c2.4-0.2,4.5-1.1,4.5-1.1c0.4,3.1-0.4,18.4-0.9,23.6c-0.5,5.2,6,5.2,5.5-0.1
					c-0.5-5.3-0.4-25.5-0.4-25.5c7.4-6.5,9.9-13.2,9.9-13.2c11.5,3.6,31.9,8.8,31.9,8.8l-0.4-7.5c15,4.3,32.9,7.5,32.9,7.5l4.6-6.1
					c1.9,3.1,4.1,5.9,4.1,5.9c11.1-4.1,20-7.4,20-7.4l3.2,6.6c18.5-5.3,40.4-3.1,40.4-3.1l9.8-3.3l-2.6,4.8c5.6,1,11.3,3.7,11.3,3.7
					c0.1,3.2,0.1,12-0.2,16.1c-0.2,4,4.8,3.8,4.3-0.1c-0.5-3.9-0.8-14.9-0.8-14.9l15-2.4c8.1,5.5,13.9,5.1,13.9,5.1s0.2,2,0.1,3.7
					c-0.1,1.7,1.2,2.3,2.2,2.3s1.9-0.9,1.8-2.3c-0.1-1.5-0.1-3.7-0.1-3.7s16.6-2.1,30.8-3.8c2.6-0.3,5.1-0.8,7.5-1.3l3-1.2
					C345.2,180,335,178.2,329.1,174.2z"/>
				<path class="st18" d="M326.4,85.4c-2.2,2.1-4.5,3.6-6.7,4.5c1.5,0.3,3,0.6,4.5,1c0,0-3,3.4-5.2,7.7c0,0,13.9-9.6,17.2-20.3
					c0.2-0.6,0.3-1.2,0.5-1.7l-11,10.8L326.4,85.4z"/>
				<path class="st15" d="M217.4,46c1.2,1.4,2.6-1.8,2.6-1.8s2.4,3,3.5,1.9c1.2-1.2-2.5-3.7-4.2-7.8C219.3,38.2,216.2,44.6,217.4,46
					z"/>
				<path class="st15" d="M304.8,53c-4.2,4-8.1,4.8-8.1,4.8c12.8,7.5,15.7,4.6,13.5,1.6C308,56.4,304.8,53,304.8,53z"/>
				<path class="st15" d="M101.5,58.3c-2.3-0.6-11.7-2.2-11.7-2.2s7.2,5.7,10.9,5.6C104.4,61.6,103.9,58.9,101.5,58.3z"/>
				<path class="st15" d="M132.3,24.8c0,0-4.6,8.8,0.8,13.2C133.1,38,139.2,31.3,132.3,24.8z"/>
				<path class="st15" d="M294.1,31.4c-4.4,13.2,3.4,10.4,3.4,10.4C295.3,38.2,294.1,31.4,294.1,31.4z"/>
				<path class="st18" d="M110.3,87.7l4,14.6l3.5-8.1C117.9,94.1,112.1,88.9,110.3,87.7z"/>
				<path class="st18" d="M290.2,131.3c-0.2,4.2,0.1,6,0.1,6C297.9,136.8,290.2,131.3,290.2,131.3z"/>
				<path class="st18" d="M157.1,127.3c0.8,2.7,1.7,4.8,1.7,4.8C165.3,131.6,157.1,127.3,157.1,127.3z"/>
				<path class="st18" d="M113.5,124.2c-1.3,3.6-1.9,9.1-0.9,12c1,3,3,1.4,3.4,0.2C114,128.6,113.5,124.2,113.5,124.2z"/>
				<path class="st18" d="M107.1,47.2c6.6,1.8,13.8,3.5,13.8,3.5c5.1-4.1,8.4-7.8,8.4-7.8C116.1,47.5,107.1,47.2,107.1,47.2z"/>
				<path class="st18" d="M102.1,45.2c0.4-2.5,0.9-4.4,0.9-4.4C96.9,43.7,102.1,45.2,102.1,45.2z"/>
				<path class="st18" d="M132.3,24.8c0,0-4.6,8.8,0.8,13.2C133.1,38,139.2,31.3,132.3,24.8z"/>
				<path class="st18" d="M157.6,18.7C157.6,18.7,157.6,18.7,157.6,18.7c-1.7-0.2-6.1-0.4-6.1-0.4c-3.5-7.9-5.8-12.9-6-13.4
					c-3.3,3.6-9.9,13.6-9.9,13.6C145.5,17.8,156,18.6,157.6,18.7z"/>
				<path class="st18" d="M198.9,35c0,0,1.9-4.2,4.1-7.1l-2.5-11.8c0,0,0,0,0,0C199.6,18.4,196.9,27.4,198.9,35z"/>
				<path class="st18" d="M217.7,15.2C217.7,15.2,217.7,15.2,217.7,15.2c-3.2,6.6-5.5,14.5-5.5,14.5l-0.7-0.1l4.4,0.9
					C215.9,30.5,216,22.2,217.7,15.2z"/>
				<path class="st18" d="M239.2,17.2c0.6,0.1,3,0.5,8.5,1.8c0,0-2.5,5.7-3.4,11.2c0,0,4.4-6.7,9.2-11c0,0,5.7,1.4,10.5,2.7
					c0,0-0.4,4.9,1.2,9.5c0,0,4-10.2-1.3-17.5c0,0-1.6,0.2-3.9,0.9c0,0-1.2-6.6-9.9-14.7c-4.4,7.4-9.2,17.4-9.2,17.4
					C240.3,17.4,239.8,17.3,239.2,17.2z"/>
				<path class="st18" d="M294.1,31.4c-4.4,13.2,3.4,10.4,3.4,10.4C295.3,38.2,294.1,31.4,294.1,31.4z"/>
				<path class="st18" d="M310.3,59.4c-2.2-3-5.4-6.4-5.4-6.4c-4.2,4-8.1,4.8-8.1,4.8C309.6,65.3,312.5,62.3,310.3,59.4z"/>
				<path class="st18" d="M101.5,58.3c-2.3-0.6-11.7-2.2-11.7-2.2s7.2,5.7,10.9,5.6C104.4,61.6,103.9,58.9,101.5,58.3z"/>
				<path class="st18" d="M219.3,38.2c0,0-3.1,6.4-1.9,7.8c1.2,1.4,2.6-1.8,2.6-1.8s2.4,3,3.5,1.9C224.7,44.9,221.1,42.3,219.3,38.2
					z"/>
				<path class="st19" d="M133.7,5.2C133.7,5.2,133.7,5.2,133.7,5.2l-0.2,0c-2.7-3.7-4.5-5.1-4.5-5.1c0,0,0,0,0,0
					c-0.1,0.6-0.4,2.6-1.4,5.5C127.5,5.5,130,5.3,133.7,5.2z"/>
				<path class="st18" d="M75.7,95.1c0,0.2,1.2,6.2,6.5,10.5C82.2,105.6,81.8,98.2,75.7,95.1z"/>
				<path class="st18" d="M63.7,127.5c11.8-2.9,20.8-4.3,20.8-4.3c1.9-4.1,2.2-6.4,2.2-6.4L63.7,127.5z"/>
				<path class="st18" d="M49.1,121.4c-1.9,2.8-4.8,4.5-4.5,6.9c0.2,2.4,6.5,1.3,6.5,1.3C49.6,126.2,49.1,121.4,49.1,121.4z"/>
				<path class="st18" d="M63.1,143.7c-4.7,0.6-13.8,2-13.8,2c11,4,18.6,1.8,20-0.2C70.7,143.6,67.8,143.2,63.1,143.7z"/>
				<path class="st18" d="M55.6,179.4c4.2,1.6,6.8,2.2,6.8,2.2l-0.6-6.5c1.3,0.5,2.6,0.9,3.9,1.4c-7.5-2.7-12.3-4.9-12.3-4.9
					L55.6,179.4z"/>
				<path class="st18" d="M158.4,35.2l4,0.3l-0.3-6.2c0,0,0,0,0,0l0,0c-2.5-6.8-4.4-10.6-4.4-10.6c0,0,0,0-0.1,0
					C159.7,26,158.4,35.2,158.4,35.2z"/>
				<path class="st18" d="M175.8,98.6c0,0-2.8,6.8,2.2,12.5c5,5.7,6.3,7.3,6.3,7.3S183.5,105.6,175.8,98.6z"/>
				<path class="st18" d="M214,129.9l11,1.2c0.3-1.8,1.7-3.8,1.7-3.8L214,129.9z"/>
				<path class="st18" d="M264.5,135.6c-2.2,5.3-3.1,9.9-3.1,9.9c-4.8-0.1-7.9,1-7.9,1c4.6,0.6,13.8,2.6,13.8,2.6
					C265.2,141.8,264.5,135.6,264.5,135.6z"/>
				<path class="st19" d="M290.6,149.7c0,0,0.1,2.2,0.8,5.7C291.4,155.4,299.5,147.9,290.6,149.7z"/>
				<path class="st18" d="M348.4,141.7c-6.4-0.2-14.6-2.6-14.6-2.6c2.9,2.9,7.3,6.1,7.3,6.1l-1.4,1.5c2.3,2.7,7.6,2.2,11.1,0
					C354.2,144.6,354.7,141.8,348.4,141.7z"/>
				<path class="st18" d="M347.9,124c-1.6,1.3-1.8,3.5,2.6,4.6S368,129,368,129C356.7,126.7,353.2,125.4,347.9,124z"/>
				<path class="st18" d="M323.2,134.9c-3,3.6-7,5.9-7,5.9c2.3,0.4,4,0.7,4,0.7l4.5-5.7C323.9,135.3,323.2,134.9,323.2,134.9z"/>
				<path class="st20" d="M234.4,93.2c0,0,3.6,8.2,0,18.2C234.4,111.4,231,102.9,234.4,93.2z"/>
				<path class="st18" d="M290.6,149.7c0,0,0.1,2.2,0.8,5.7C291.4,155.4,299.5,147.9,290.6,149.7z"/>
				<path class="st18" d="M336.6,54.6C336.6,54.6,336.6,54.6,336.6,54.6l-10.9,32.8l11-10.8C339,67,336.9,56.2,336.6,54.6z"/>
				<path class="st18" d="M7.5,143.3c1.3,0.7,6.6,3.1,24.4,6.9c0.1-1.1,0.2-2.2,0.3-3.4C32.3,146.8,17.1,147.6,7.5,143.3z"/>
				<path class="st18" d="M56.8,69.5c0,0,5.1,1.3,10.6,2.8c-6.2-7.3-14.9-16.2-15.5-16.9c0.2,0.3,1.1,1.6,2.1,3.7
					C55,61.4,56.2,64.9,56.8,69.5z"/>
				<path class="st18" d="M74.5,89.8c0,0,6.8-1.1,16.6-1.8C85,82,77.1,75.3,77.1,75.3S73.7,82,74.5,89.8z"/>
					<path class="st21" d="M110.9,82.1c-0.1-1-0.5-1.7-1.4-1.8c-0.9-0.1-2.4,0.8-2.2,2.1c0,0.3,0.1,0.5,0.2,0.7
						c1.1-0.2,2.3-0.5,3.3-0.9C110.9,82.3,110.9,82.2,110.9,82.1z"/>
					<linearGradient id="SVGID_17_" gradientUnits="userSpaceOnUse" x1="99.3774" y1="83.5894" x2="105.0971" y2="52.2206">
						<stop  offset="0" style="stop-color:#F4831C"/>
						<stop  offset="0.7821" style="stop-color:#F57D1A;stop-opacity:7.299876e-02"/>
						<stop  offset="0.8437" style="stop-color:#F57C1A;stop-opacity:0"/>
					</linearGradient>
					<path class="st22" d="M102,83.3c0,0,6.8-1.3,5-8.9c-1.7-6-9.2-3.8-10.5-2.9s-3,2.1-1.9,6.8C96.1,84.9,102,83.3,102,83.3z"/>
					<path class="st23" d="M149.8,72.3c-0.1,1.4-0.2,2.7-0.3,3.4c0,0,2.3-0.2,5.4-0.7C153.8,71.3,150.7,72,149.8,72.3z"/>
					<linearGradient id="SVGID_18_" gradientUnits="userSpaceOnUse" x1="155.3405" y1="67.1186" x2="155.8767" y2="61.2202">
						<stop  offset="0.25" style="stop-color:#F6861A"/>
						<stop  offset="0.65" style="stop-color:#F7941B"/>
						<stop  offset="1" style="stop-color:#F7991C"/>
					</linearGradient>
					<path class="st24" d="M156.7,68.2c0,0,2.9-1.1,1.3-4.2c-1.1-2.1-3.2-1.9-4.1-1.4c-0.9,0.5-2.2,1.7-1.1,4.3
						C153.9,69.5,156.7,68.2,156.7,68.2z"/>
					<path class="st25" d="M194.2,74.5c1,0.6,2.6,0.9,3.8,0.1c1.1-0.8,2.3-2.4,0.7-4.1c-1.6-1.7-3.2-2.6-5.1-0.8
						C190.7,72.5,194.2,74.5,194.2,74.5z"/>
					<path class="st25" d="M201.4,71.3c0,0-1.2,0.1-1.4,1c-0.2,0.9,0.8,1.7,1.5,1.6c0.7,0,2.1-0.5,1.1-2
						C202.2,71.2,201.4,71.3,201.4,71.3z"/>
					<linearGradient id="SVGID_19_" gradientUnits="userSpaceOnUse" x1="231.5145" y1="70.391" x2="232.3188" y2="54.3045">
						<stop  offset="0.3049" style="stop-color:#F78119"/>
						<stop  offset="0.5866" style="stop-color:#F8991C"/>
						<stop  offset="0.8276" style="stop-color:#F8A81E"/>
					</linearGradient>
					<path class="st26" d="M233.6,69.8c1-0.4,2-1.1,2.8-2.5c1.8-3.3,0-5.2-0.9-6c-2.2-1.9-4.5-2-6.3-1.5c-1.5,0.4-2.4,2.9-2.6,3.5
						C228.5,66,230.7,68.2,233.6,69.8z"/>
					<path class="st27" d="M317.3,82c2.4-1.2,4.4-2.8,6.1-4.5c-0.7-1-1.2-1.7-2.3-2.5c-2.2-1.3-5.3-2.4-7.8-0.7
						c-4.4,3.4-2.5,7.5-2.1,8.3C313.3,83,315.4,83,317.3,82z"/>
					<linearGradient id="SVGID_20_" gradientUnits="userSpaceOnUse" x1="274.2018" y1="76.2043" x2="274.2018" y2="59.0453">
						<stop  offset="0.3049" style="stop-color:#F16A1D"/>
						<stop  offset="0.3482" style="stop-color:#F2701D"/>
						<stop  offset="0.6641" style="stop-color:#F6981E"/>
						<stop  offset="0.8276" style="stop-color:#F8A81E"/>
					</linearGradient>
					<path class="st28" d="M279.4,74.9C279.4,74.9,279.4,74.9,279.4,74.9c-0.3-1.5-0.6-1.9-0.9-2.4c-0.3-0.5-2.1-2.6-5.4-2.1
						c-2.9,0.4-3.8,3.3-4,4.1C272.9,74.4,276.6,74.7,279.4,74.9z"/>
					<linearGradient id="SVGID_21_" gradientUnits="userSpaceOnUse" x1="276.6547" y1="76.2043" x2="276.6547" y2="59.0453">
						<stop  offset="0.3049" style="stop-color:#F16A1D"/>
						<stop  offset="0.3625" style="stop-color:#F2701D"/>
						<stop  offset="0.7826" style="stop-color:#F6981E"/>
						<stop  offset="1" style="stop-color:#F8A81E"/>
					</linearGradient>
					<path class="st29" d="M273.9,66.9c0.6,2.1,3.5,1.6,3.5,1.6c1-0.2,2.4-0.6,1.9-2.7c-0.3-1.1-1.2-2.2-1.8-2.4
						c-0.6-0.2-2.2-0.4-3.2,0.8C273.6,65.4,273.9,66.9,273.9,66.9z"/>
					<path class="st30" d="M45.5,156.7c-1,0-2.4,0.3-3.7,1.8c-1.8,2.1-1.3,4.6-0.9,5.8l5.6,2.4L45.5,156.7z"/>
					<path class="st30" d="M51.4,157.6c-0.9-2-3.3-2.3-4.5-2.4l4.3,7.7C52.2,161.1,52.2,159.5,51.4,157.6z"/>
					<linearGradient id="SVGID_22_" gradientUnits="userSpaceOnUse" x1="83.4865" y1="170.1877" x2="85.6314" y2="119.7832">
						<stop  offset="4.020101e-03" style="stop-color:#F57618"/>
						<stop  offset="0.3852" style="stop-color:#F68A1A"/>
						<stop  offset="0.4517" style="stop-color:#F7971C"/>
						<stop  offset="0.6142" style="stop-color:#F8B21F"/>
						<stop  offset="0.7097" style="stop-color:#F9BC20"/>
					</linearGradient>
					<path class="st31" d="M88.1,144.9c-5.1-2.2-8.9,1.2-9.5,1.6c-0.5,0.5-4.4,3.7-3.2,7.4c0.8,2.4,2.6,3.8,3.8,4.5
						c0,0.7,0,2.2-0.2,3.4c-0.3,1.8-0.6,3.8-0.7,4.6c-0.1,0.8-0.6,3.8,2,3.7c0.4,0,1.5-0.7,1.5-2.4c0-1.7,0.2-3.6,0.3-4.5
						c0.1-1.2,0.5-3.3,0.6-3.9c0.4,0,0.8,0.1,1.2,0.1c-0.2,0.6-0.6,2.5,0.5,3.4c0.6,0.4,1.7,0.5,2.2,0.1c0.5-0.4,0.9-1.2,1-2.5
						c0-0.4,0-0.9,0-1.3c4.1-0.9,5.4-5.2,5.7-6.3C93.4,151.6,93.2,147.1,88.1,144.9z"/>
					<linearGradient id="SVGID_23_" gradientUnits="userSpaceOnUse" x1="87.6387" y1="170.3644" x2="89.7836" y2="119.9599">
						<stop  offset="4.020101e-03" style="stop-color:#F57618"/>
						<stop  offset="0.3852" style="stop-color:#F68A1A"/>
						<stop  offset="0.4517" style="stop-color:#F7971C"/>
						<stop  offset="0.6142" style="stop-color:#F8B21F"/>
						<stop  offset="0.7097" style="stop-color:#F9BC20"/>
					</linearGradient>
					<path class="st32" d="M88.1,141.3c0,0-1.1,0.5-1.1,1.3c-0.1,0.9,1.1,1.5,1.7,1.6c0.6,0.1,1.5,0,1.9-1.1c0.4-1.1,0-1.8-0.4-2
						C89.1,140.8,88.1,141.3,88.1,141.3z"/>
					<linearGradient id="SVGID_24_" gradientUnits="userSpaceOnUse" x1="93.3118" y1="170.6058" x2="95.4567" y2="120.2013">
						<stop  offset="4.020101e-03" style="stop-color:#F57618"/>
						<stop  offset="0.3852" style="stop-color:#F68A1A"/>
						<stop  offset="0.4517" style="stop-color:#F7971C"/>
						<stop  offset="0.6142" style="stop-color:#F8B21F"/>
						<stop  offset="0.7097" style="stop-color:#F9BC20"/>
					</linearGradient>
					<path class="st33" d="M96.9,137.9c-1,0.2-5.4,1.2-5.3,4.6c0,1.5,1.5,2.7,2.6,3.2c0.9,0.4,2.2,0.4,3.2,0.2
						C97.5,142.9,97.3,140.2,96.9,137.9z"/>
					<path class="st34" d="M227.1,147c0,0-1.9-2.6-6-0.7c-2.1,1.1-2.6,2.6-2.4,4c0.2,1.4,1.6,4.2,4.9,4.2c0.9,0,1.9-0.7,2.5-1.4
						s1.3-1.7,1.5-2.5c0.2-0.8,0.5-2-0.3-3.2C227.1,147.2,227.1,147,227.1,147z"/>
					<path class="st35" d="M150.3,139.5c0,0-3.9,0.3-4-3.1c-0.2-3.4,3-3.7,3.6-3.7s2.2,0.1,3.4,2.1c1.2,2,0.1,3.6-1.2,4.1
						C151.1,139.4,150.3,139.5,150.3,139.5z"/>
					<linearGradient id="SVGID_25_" gradientUnits="userSpaceOnUse" x1="152.3495" y1="156.5029" x2="152.3495" y2="126.464">
						<stop  offset="4.020101e-03" style="stop-color:#F2781F"/>
						<stop  offset="0.613" style="stop-color:#F9BC20"/>
					</linearGradient>
					<path class="st36" d="M153.3,154.3c0,0-6.3,0.1-6.9-5c-0.2-1.8,1.3-5,3.3-5.9c2.2-1,4.6-1,6.7,1.5s2.1,4.2,2,5.3
						c-0.1,1.2-1.2,2.6-2.1,3.3S153.3,154.3,153.3,154.3z"/>
					<path class="st37" d="M181.4,138.2c0,0,0,1.8,0,3.4s0,3.6,0,4.2s0.1,2.1,1.4,2.2c1.3,0.1,1.8-1.5,1.7-2.5
						c-0.2-1.3-0.2-2.3-0.4-3.9c-0.1-1.6-0.1-3.7-0.1-3.7L181.4,138.2z"/>
					<linearGradient id="SVGID_26_" gradientUnits="userSpaceOnUse" x1="373.3612" y1="162.6296" x2="367.8315" y2="150.0285">
						<stop  offset="0" style="stop-color:#F57419"/>
						<stop  offset="0.3993" style="stop-color:#F4771A;stop-opacity:0.8004"/>
						<stop  offset="0.7211" style="stop-color:#F2811E;stop-opacity:0.6394"/>
						<stop  offset="1" style="stop-color:#EE9125;stop-opacity:0.5"/>
					</linearGradient>
					<path class="st38" d="M379.3,156.7c0.2-1.1,0.2-2.4-0.1-3.1c-0.5-1.2-0.6-2-3.9-4.1c-3.3-2.1-9.7-1.7-11.4,0.9
						c-1.7,2.6-2.5,7.9-1,10.8c1.1,2.1,2.7,2.9,3.5,3.2c0,0,0.1-0.1,0.1-0.1C369.7,162.7,374.6,160.1,379.3,156.7z"/>
					<linearGradient id="SVGID_27_" gradientUnits="userSpaceOnUse" x1="361.4188" y1="167.8703" x2="355.889" y2="155.2692">
						<stop  offset="0" style="stop-color:#F57419"/>
						<stop  offset="0.3993" style="stop-color:#F4771A;stop-opacity:0.8004"/>
						<stop  offset="0.7211" style="stop-color:#F2811E;stop-opacity:0.6394"/>
						<stop  offset="1" style="stop-color:#EE9125;stop-opacity:0.5"/>
					</linearGradient>
					<path class="st39" d="M359.6,166c0,0-1.6,0.1-2.1-1.5c-0.5-1.6,0.3-2.6,0.9-2.8c0.6-0.2,2.1-0.4,3.2,1.3
						c0.4,0.6,0.3,1.8-0.3,2.4C360.5,166,359.6,166,359.6,166z"/>
					<path class="st40" d="M313.8,144.2c-1.9,1.4-2.6,2.9-2.3,5c0.3,2.1,1.3,4.1,3.7,5.3c0,0,0.1,0.1,0.1,0.7c0,0.7-0.3,2.7,1.8,2.7
						s1.5-3.2,1.5-3.2c1.5-0.2,2.7-0.7,3.5-1.2c2.4-5.1-0.1-7-0.1-7s0,0,0,0c0.2,0.1,0.4,0.3,0.6,0.4c-2-1.5-5-2.5-8.1-3.2
						C314.4,143.9,314.1,144.1,313.8,144.2z"/>
					<linearGradient id="SVGID_28_" gradientUnits="userSpaceOnUse" x1="196.117" y1="144.1181" x2="204.0184" y2="103.4055">
						<stop  offset="4.020101e-03" style="stop-color:#F9AD1E"/>
						<stop  offset="0.613" style="stop-color:#FCED26"/>
					</linearGradient>
					<path class="st41" d="M200,142.1c1.8-0.4,3.6-2.5,4.4-4.4s1.1-4.1-0.3-6.9c-1.3-2.7-5.9-4.7-9.8-2.6c-3.2,1.8-3.4,5.3-3.3,6.5
						c5.3,1,6.7,4.1,6.6,7.6C198.4,142.4,199.2,142.3,200,142.1z"/>
					<linearGradient id="SVGID_29_" gradientUnits="userSpaceOnUse" x1="198.6511" y1="144.6119" x2="206.5603" y2="103.8594">
						<stop  offset="4.020101e-03" style="stop-color:#F9AD1E"/>
						<stop  offset="0.613" style="stop-color:#FCED26"/>
					</linearGradient>
					<path class="st42" d="M204.2,119.5c-3.9-0.2-3.9,3.1-3.8,3.9c-0.7-1-1.7-0.6-1.7-0.6c-0.7,0.2-1.4,1.6-0.7,2.4
						c0.7,0.9,1.7,0.6,2.3,0.3c0.6-0.4,0.5-1.2,0.5-1.2s0.3,0.4,0.7,0.8c0.4,0.4,0.7,0.7,1.6,1c0.9,0.3,3.9,0.6,4.6-2.2
						C208.2,121.2,206.3,119.7,204.2,119.5z"/>
					<linearGradient id="SVGID_30_" gradientUnits="userSpaceOnUse" x1="280.1581" y1="82.4932" x2="282.0349" y2="62.251">
						<stop  offset="0.1323" style="stop-color:#F78119"/>
						<stop  offset="1" style="stop-color:#F78119;stop-opacity:0"/>
					</linearGradient>
					<path class="st43" d="M278.9,57.6c-0.2-0.2-0.4-0.5-0.6-0.7c4.9,7.8,5,17.1,5,17.1c-5.1-0.8-6-0.8-6-0.8l0.2,1.6
						c4.5,0.4,7.6,0.9,7.6,1C284.8,69.7,284.2,64.9,278.9,57.6z"/>
					<linearGradient id="SVGID_31_" gradientUnits="userSpaceOnUse" x1="119.4183" y1="165.107" x2="115.0096" y2="136.9533">
						<stop  offset="0" style="stop-color:#F18520"/>
						<stop  offset="0.1387" style="stop-color:#EF8022;stop-opacity:0.7609"/>
						<stop  offset="0.58" style="stop-color:#EA7526;stop-opacity:0"/>
					</linearGradient>
					<path class="st44" d="M99.6,163.2c14.3,6.8,22.6-13,22.6-13c0.7,2.6,3,7.5,3,7.5c5.2,0.9,12.8,1,12.8,1
						c-0.2-0.5-0.4-1.1-0.6-1.6c-1.5,0-9.5-0.1-11.8-0.5c-2.3-6.4-3.4-10.5-3.4-10.5s-8,22.6-20.7,15c0,0,7.2-19.4,0.2-30.9l0,0.1
						C106.5,141.9,99.6,163.2,99.6,163.2z"/>
					<linearGradient id="SVGID_32_" gradientUnits="userSpaceOnUse" x1="136.4762" y1="136.2867" x2="164.7753" y2="136.2867">
						<stop  offset="0" style="stop-color:#FEFF28;stop-opacity:0"/>
						<stop  offset="2.625899e-02" style="stop-color:#FDF027;stop-opacity:6.762552e-02"/>
						<stop  offset="0.1028" style="stop-color:#FAC923;stop-opacity:0.2647"/>
						<stop  offset="0.1785" style="stop-color:#F7AA20;stop-opacity:0.4598"/>
						<stop  offset="0.2523" style="stop-color:#F5951E;stop-opacity:0.6498"/>
						<stop  offset="0.3233" style="stop-color:#F4871C;stop-opacity:0.8326"/>
						<stop  offset="0.3883" style="stop-color:#F4831C"/>
						<stop  offset="1" style="stop-color:#F4831C;stop-opacity:0"/>
					</linearGradient>
					<path class="st45" d="M137.7,117.1c-0.9,3.1-1.2,5.1-1.2,5.1c1.4,6.3,7.4,33.2,7.4,33.2c8.4-0.5,20.8-2.1,20.8-2.1
						c-0.2-0.3-0.3-0.5-0.5-0.8l-19.3,0.7C145.1,153.3,144.4,149.8,137.7,117.1z"/>
					<linearGradient id="SVGID_33_" gradientUnits="userSpaceOnUse" x1="34.6847" y1="164.5748" x2="37.2364" y2="154.9846">
						<stop  offset="0" style="stop-color:#F67818"/>
						<stop  offset="0.9727" style="stop-color:#F67818;stop-opacity:0"/>
					</linearGradient>
					<path class="st46" d="M38.3,163.2l-0.7-15.4c0,0,0,0,0,0c-0.3-0.1-0.5-0.2-0.8-0.3c0,0,0,0,0,0c-0.3-0.1-0.5-0.2-0.8-0.3
						l0.4,5.4l0.8,11.7L38.3,163.2z"/>
					<path class="st30" d="M52.2,164.9L45,152l1.5,14.8l-8.2-3.5l-1.2,1.1c0,0,4.9,2.9,11.4,5.9l-2.8-16l0.2,0.5l4.2,11L52.2,164.9z
						"/>
					<linearGradient id="SVGID_34_" gradientUnits="userSpaceOnUse" x1="66.6415" y1="159.9956" x2="41.1712" y2="90.8905">
						<stop  offset="0" style="stop-color:#F7B231;stop-opacity:0.1"/>
						<stop  offset="0.5" style="stop-color:#F7B231"/>
						<stop  offset="0.738" style="stop-color:#F2A628"/>
						<stop  offset="0.7939" style="stop-color:#F0A225"/>
					</linearGradient>
					<path class="st47" d="M44.6,138.4v1.1c0.6-0.1,1.1-0.1,1.7-0.2c11.5-1.4,29.7-4.1,29.8,2.9c0,7-10.2,12.6-32.6,5l1.4,3.9
						c0,0,29.3,9.9,33.2-7.9C80.1,133,58.5,136.8,44.6,138.4z"/>
					<linearGradient id="SVGID_35_" gradientUnits="userSpaceOnUse" x1="11.8548" y1="116.3642" x2="64.5383" y2="143.6107">
						<stop  offset="0" style="stop-color:#F8CD26;stop-opacity:5.000000e-02"/>
						<stop  offset="0.1891" style="stop-color:#F8C828;stop-opacity:0.4093"/>
						<stop  offset="0.4043" style="stop-color:#F7BB2E;stop-opacity:0.8182"/>
						<stop  offset="0.5" style="stop-color:#F7B231"/>
						<stop  offset="0.738" style="stop-color:#F2A628"/>
						<stop  offset="0.7939" style="stop-color:#F0A225"/>
					</linearGradient>
					<path class="st48" d="M44.6,138.4c-0.8,0.1-1.7,0.2-2.5,0.3c-13,1.3-25.6,1.3-28.3-5c-2.8-6.4,5.7-15.1,10.9-31.2
						c0,0.1-0.1,0.2-0.1,0.3c-5.2,13.1-16.8,21.7-14.4,30.7c2.1,8,19.9,7.5,31.9,6.3c0.9-0.1,1.8-0.2,2.6-0.3L44.6,138.4
						C44.6,138.4,44.6,138.4,44.6,138.4z"/>
					<linearGradient id="SVGID_36_" gradientUnits="userSpaceOnUse" x1="310.8152" y1="70.8709" x2="314.0325" y2="51.2654">
						<stop  offset="0.1323" style="stop-color:#F78119"/>
						<stop  offset="0.372" style="stop-color:#F9A51D;stop-opacity:0.7237"/>
						<stop  offset="1" style="stop-color:#FEFF28;stop-opacity:0"/>
					</linearGradient>
					<path class="st49" d="M289.2,75.5l9.3-7.5l-4.6,7.5c8.3,3.3,14.1,11.5,23,8.5c8.9-3,16.7-19.2,17-27.9c0.1-3.6-0.6-6.5-2.3-9.3
						c3.1,9.1-0.6,17.5-2.5,22c-1.9,4.7-5.8,10-11.9,13.1c-6,3.1-14.2-2.9-16.5-4.4s-5.3-2.7-5.3-2.7l4.4-8.7l-9.7,7L289.2,75.5z"/>
					<linearGradient id="SVGID_37_" gradientUnits="userSpaceOnUse" x1="290.2112" y1="74.6986" x2="286.7258" y2="63.4381">
						<stop  offset="0.1323" style="stop-color:#F78119"/>
						<stop  offset="1" style="stop-color:#F78119;stop-opacity:0"/>
					</linearGradient>
					<path class="st50" d="M290.2,73.2c-0.1-3.9-1.5-7.4-2.5-9.7c-0.6,0.2-1.2,0.3-1.6,0.4c0,0,0,0,0,0c2.4,5.3,3.1,11.5,3.1,11.5
						L290.2,73.2z"/>
					<linearGradient id="SVGID_38_" gradientUnits="userSpaceOnUse" x1="158.4673" y1="75.0079" x2="166.2424" y2="53.9614">
						<stop  offset="0.2448" style="stop-color:#F67E19"/>
						<stop  offset="0.261" style="stop-color:#F6831A;stop-opacity:0.9786"/>
						<stop  offset="0.4303" style="stop-color:#F9AF1F;stop-opacity:0.7544"/>
						<stop  offset="0.5934" style="stop-color:#FBD223;stop-opacity:0.5384"/>
						<stop  offset="0.7467" style="stop-color:#FDEB26;stop-opacity:0.3354"/>
						<stop  offset="0.8864" style="stop-color:#FEFA27;stop-opacity:0.1504"/>
						<stop  offset="1" style="stop-color:#FEFF28;stop-opacity:0"/>
					</linearGradient>
					<path class="st51" d="M159.3,74.2c0,0,3.6-13.2,8.3-24.1c0,0,0.4-1,0.9-2.1l1.9-0.3L167,48c-5.4,11.3-8.8,25.2-8.8,25.2
						L159.3,74.2z"/>
					<path class="st23" d="M158.2,73.2l-7.4,1.4l0.3-9.4c-8.9,11.5-19.1,10.2-19.1,10.2l-3.1,1.9c0,0,12.8,0.8,21.4-9.6
						c0,0-0.6,6.2-0.7,8c0,0,4.7-0.4,9.7-1.5L158.2,73.2z"/>
					<linearGradient id="SVGID_39_" gradientUnits="userSpaceOnUse" x1="115.0209" y1="96.0604" x2="141.0275" y2="36.8083">
						<stop  offset="0.1357" style="stop-color:#F67E19"/>
						<stop  offset="0.2516" style="stop-color:#F8971C;stop-opacity:0.7673"/>
						<stop  offset="0.4972" style="stop-color:#FCD823;stop-opacity:0.2744"/>
						<stop  offset="0.634" style="stop-color:#FEFF28;stop-opacity:0"/>
					</linearGradient>
					<path class="st52" d="M132.1,75.4c0,0,7.6-8.1,5.1-16c-1.4-4.2-7.1-6.3-12.1-7.4c2.8,0.9,9.5,3.4,10.6,7.7
						c1.4,5.4-2.2,12.2-6.7,17.6L132.1,75.4z"/>
					<linearGradient id="SVGID_40_" gradientUnits="userSpaceOnUse" x1="292.7261" y1="155.9003" x2="325.6848" y2="155.9003">
						<stop  offset="5.582453e-02" style="stop-color:#EF631D;stop-opacity:0"/>
						<stop  offset="0.2637" style="stop-color:#EF651D;stop-opacity:0.1361"/>
						<stop  offset="0.3389" style="stop-color:#F2721C;stop-opacity:0.3512"/>
						<stop  offset="0.4698" style="stop-color:#F5841B;stop-opacity:0.7257"/>
						<stop  offset="0.5657" style="stop-color:#F68A1A"/>
						<stop  offset="1" style="stop-color:#F68119"/>
					</linearGradient>
					<path class="st53" d="M325,152.1c0.4-2.4-0.8-4.2-2.9-5.6c0,0,0,0,0,0s5.5,4.2-8,17.1l-18.9-4.4c-1.5,1-2.6,1.7-2.6,1.7
						l22.6,4.4c0,0,9.3-9.1,10.4-15.5C325.6,150.6,325.3,151.3,325,152.1z"/>
					<path class="st54" d="M88.1,57.7c0,0-1.3,0.8-2.6,1.7c0,0-2.6-2-3.6-2.5c0,0-10,3.6-21,7.9c0.3,0.2,0.7,0.4,1,0.6
						c5.6-2.3,17.8-6.6,17.8-6.6c2.2,1.3,3.7,2.6,3.7,2.6l2.7-1.6c12.7,11.9,20.5,6.1,22.5,2.2C106.5,65.3,98.6,68.1,88.1,57.7z"/>
					<path class="st54" d="M82.2,61.6c-1.2,0.9-5.5,3.9-9.3,7c0,0,0.4,0.3,1.2,0.9C76.3,67.2,81.1,62.6,82.2,61.6z"/>
					<path class="st55" d="M270.4,28.5c-1,8.2-1,12.7-1,12.7c0.3,0.6,0.7,1.2,1.1,1.9c0.1-2,0.4-8,1-12c0.7-4.5,0.3-11.2-2.7-15.1
						C270.1,18.7,271.1,22.9,270.4,28.5z"/>
					<path class="st55" d="M268.4,15.1c1-0.3,4.8-1.3,8.4-1.7l1.1-1.5c-6.2,0.4-10.8,1.3-10.8,1.3C267.5,13.7,267.9,14.3,268.4,15.1
						z"/>
					<linearGradient id="SVGID_41_" gradientUnits="userSpaceOnUse" x1="284.0186" y1="65.1291" x2="332.5463" y2="60.4372">
						<stop  offset="0" style="stop-color:#FEFF28"/>
						<stop  offset="1.192080e-02" style="stop-color:#FEFC29"/>
						<stop  offset="0.1456" style="stop-color:#FEDE37"/>
						<stop  offset="0.2776" style="stop-color:#FFC941"/>
						<stop  offset="0.4059" style="stop-color:#FFBC47"/>
						<stop  offset="0.5264" style="stop-color:#FFB849"/>
						<stop  offset="0.6148" style="stop-color:#FFD03E"/>
						<stop  offset="0.7338" style="stop-color:#FEEA32"/>
						<stop  offset="0.8412" style="stop-color:#FEFA2B"/>
						<stop  offset="0.9258" style="stop-color:#FEFF28"/>
					</linearGradient>
					<path class="st56" d="M302,66.7l1-1.9c0,0,5.8,3.6,10.6,3.6c4.8,0,7-4.9,6.1-7.3c-0.9-2.2-2-3.3-3.9-5.3c2.5,2.7,3.5,5,1.1,8
						c-4.6,5.6-15.6-1-15.6-1l-1,1.9c-4.6-2.6-8.2-4.4-8.2-4.4c-4.9,1-7,1.6-7,1.6c0.4,0.7,0.7,1.4,1.1,2.1c1.6-0.4,4.7-1.3,7.5-1.7
						C293.6,62.3,298.6,64.6,302,66.7z"/>
					<linearGradient id="SVGID_42_" gradientUnits="userSpaceOnUse" x1="301.2401" y1="9.5529" x2="297.6895" y2="104.826">
						<stop  offset="0" style="stop-color:#FFFFFF"/>
						<stop  offset="0.8487" style="stop-color:#FEFF28"/>
					</linearGradient>
					<path class="st57" d="M310.8,14c-5.8-1.9-13.5-2.7-13.5-2.7c-2.6,21.6,6.9,32.3,6.9,32.3c-1.5,0.9-6.5,3.8-11.7,1.4
						c-1-0.4-1.7-1.1-2.1-2c1.5,3.2,5.4,7.4,15.4,2.2c0,0-9.3-10.5-6.4-31.7c0,0,6.6,0.7,11.3,3.1C310.5,14.9,310.8,14,310.8,14z"/>
					<path class="st55" d="M286,12.5l0.1,1.1c0,0,2.8,0.3,4.7,0.9c-0.3-0.9-0.6-1.4-0.6-1.4C287.6,12.6,286.2,12.5,286,12.5z"/>
					<path class="st55" d="M257.1,3.1c0.6,0.6,1.3,1.3,1.8,2c3.3,0.4,19.3,2.4,26.7,4.2c-0.2-1.1-0.4-1.7-0.4-1.7
						C266.6,4.1,257.1,3.1,257.1,3.1z"/>
					<path class="st54" d="M264.1,54.3c0,0-0.6-0.6-1.2-1.3c-0.2,0.1-3.9,1.4-6.8,2.6c0,0.2,0.1,0.7,0.2,1.3
						C256.3,56.9,261.2,55.1,264.1,54.3z"/>
					<path class="st54" d="M263.5,38.2c1.6,3.6,4.2,7.6,8.1,11.7c3.3,3.4,5.7,5.9,7.3,7.8c-2-2.7-4.6-5.8-8-9.5
						C267.4,44.5,265.1,41.2,263.5,38.2z"/>
					<path class="st55" d="M260.4,26.3c0-0.8,0.2-1.2,0.2-1.2c-2.9-1.3-7.1-2.1-7.1-2.1c-7.1,9.1-9.6,20.7-9.6,20.7
						c0.1,0.5,0.4,1,0.7,1.6c0.5-1.8,3.9-13.6,9.8-20.1C254.3,25.2,257,25.6,260.4,26.3z"/>
					<path class="st55" d="M239.8,32.1c0.2-0.9,0.3-1.5,0.3-1.5l-10.2-2.1l-1.3,0L239.8,32.1z"/>
					<path class="st55" d="M216.1,38.1c0.4-1.4,0.7-2.2,0.7-2.2c-6.7-1.8-12-3.2-12-3.2c-2.2,2.7-4.1,6.1-4.1,6.1
						c0.1,0.3,0.3,0.6,0.4,0.8c0.5-0.7,2.2-3.1,3.9-5L216.1,38.1z"/>
					<path class="st55" d="M241.7,23.4c0.8-1.4,1.4-2.2,1.4-2.2c-14.2-1.3-22.2-0.5-22.2-0.5c-1.8,5.2-1.5,8.6-1.5,8.6l0.6-0.1
						c0.2-1.4,0.6-4.4,1.6-6.6C221.6,22.6,233.2,22.2,241.7,23.4z"/>
					<path class="st54" d="M214.4,55.2c3.5,4,7.3-5.7,7.3-5.7s6.3,9,10.5,9c2.8,0,2.3-2.4,1.5-4.2c0.4,1.1,0.2,1.9-1.1,2.2
						c-4.4,1.1-11.3-9-11.3-9s-3.5,8.8-6.6,6.4c-1-0.8-1.1-3-0.9-5.5C213.4,51.2,213.3,54,214.4,55.2z"/>
					<path class="st58" d="M191.4,63.6c0.4,0.5,0.4,1,0.1,1.7c-1.4,3-8.3,1.7-8.3,1.7c0,0,0-0.1,0-0.1c0,0.2,0.3,0.8,0.4,1.4
						c0,0,5.1,1.2,7.4-0.4C192.9,66.5,192.5,64.6,191.4,63.6z"/>
					<path class="st54" d="M184.5,51.6c0.2,0.4,0.4,0.8,0.3,1.3c-0.4,2-4.7,1.5-4.7,1.5c-0.1-0.2-0.1-0.3-0.1-0.5l0.4,1.6
						c0,0,3.5,0.5,4.5-0.6C185.7,54.1,185.6,52.9,184.5,51.6z"/>
					<path class="st55" d="M194,23.6c0.2-1.8,0.6-2.8,0.6-2.8c-12.9,0.1-24.9,1.7-24.9,1.7c0.1,0.6,0.2,1.2,0.4,1.8
						C171,24.2,184.2,22.7,194,23.6z"/>
					<path class="st54" d="M201.3,57.8c-4.5-0.4-10-0.6-11-0.6l1.9,0.9c0,0,8.4,0.3,12.6,1.9c4.1,1.6,6.7,3.9,6.5,7.8
						C213,60.1,206.1,58.2,201.3,57.8z"/>
					<path class="st55" d="M194.7,37c2.4,5.5,6.3,9.3,7.3,11.2c0.8,1.5,1,2.8,0.9,3.4c0.3-0.5,0.5-1.1,0.5-1.7
						c0-4.6-4.1-5.5-7.7-13.5c-1.9-4.2-2.1-8.4-1.9-11.4C193.5,27.6,193,33,194.7,37z"/>
					<path class="st54" d="M173.7,50.7l-3.5,0.5c-0.3,0.7-0.5,1.4-0.8,2.1l3.7-0.9L173.7,50.7z"/>
					<path class="st55" d="M172.7,31.8c-3.6-0.3-6.7-0.2-6.7-0.2c0,0.5,0,0.9-0.1,1.3c1.1,0,4.9,0.1,7.7,0.6
						C173.7,33.6,173.2,32.9,172.7,31.8z"/>
					<path class="st55" d="M174.9,38.3c0,0-14.7,1.1-18,1.4c0,0-0.2,0.9-0.4,2.4c1.4-0.2,9.4-1.4,17.8-2.5
						C174.5,39.1,174.7,38.7,174.9,38.3z"/>
					<path class="st54" d="M142.4,63.7c2.1,1.5,6.5-1.6,8.3-4.2l0.1-1c-0.4,0.5-4.3,4.9-7.2,3.3c-1.4-0.7-0.3-4,1.4-7.7
						C143.3,57.3,140.7,62.6,142.4,63.7z"/>
					<path class="st55" d="M152,40.8c1.9-4.8,4.2-12.5,2.4-18.7c0,0-11.7,0.4-17.7,1c0,0,0.9,0.9,1.6,2.4c2-0.3,9-1.2,15.1-1.5
						C153.4,24,155.5,29.9,152,40.8z"/>
					<path class="st54" d="M155.2,48.7c-0.2,0-1.3-0.2-2.8-0.4c0,0-0.1,0.8-0.3,2l2.9,0.4L155.2,48.7z"/>
					<path class="st54" d="M129.9,47.1c2.7-2.4,6.9-6.2,8.6-11.9c-2.8,6.9-7.2,9-14.7,16.5c0,0,0.4,0.1,1.1,0.3
						C125.6,51.3,127.6,49.2,129.9,47.1z"/>
					<path class="st54" d="M118.6,52.1c-13.7-3.6-20.5-4.7-21-8.2c-0.1-0.9,0.2-1.7,0.9-2.6c-0.5,0.5-4.7,4.8-0.4,7.2
						c4.5,2.5,19.1,4.9,25.8,7.9c6.4,2.9,9,6.3,5.6,13.3C136,60.1,130.4,55.2,118.6,52.1z"/>
					<path class="st55" d="M126.5,10.2c0,0,6.5-0.1,10.8,0.4c1-1.6,1.8-2.7,2-2.9c0,0-6.8-0.1-12.8,0.4c0,0-5.2,5.8-8,9.4
						c0,0,0,0,0,0c-0.3,0.5-0.6,1-1,1.5L126.5,10.2z"/>
					<path class="st55" d="M99.8,10.4c0,0,14-3.4,24.1-3.6c0.3-0.6,0.5-1.3,0.8-2L124.6,5c0,0-12.3,0.6-25.8,3.2
						c0,0,0.1,9.8-16.5,20.1c-4.2,2.6-7.3,5.1-9.3,7.4c1.9-1.5,6.7-5.2,13.6-9.1C95.8,21.4,99.5,13.7,99.8,10.4z"/>
					<path class="st55" d="M125.4,39.3c0.8-0.3,1.6-0.6,2.5-0.9c0,0-2.4-4,0.3-11c1.5-3.9,4.5-9.3,7.1-13.4
						C131.1,19.8,123.3,32.1,125.4,39.3z"/>
					<linearGradient id="SVGID_43_" gradientUnits="userSpaceOnUse" x1="201.1104" y1="153.7019" x2="259.2901" y2="130.6446">
						<stop  offset="0.1418" style="stop-color:#FF8549"/>
						<stop  offset="0.1581" style="stop-color:#FF8949"/>
						<stop  offset="0.2899" style="stop-color:#FFA649"/>
						<stop  offset="0.4311" style="stop-color:#FFBC49"/>
						<stop  offset="0.5845" style="stop-color:#FFCC49"/>
						<stop  offset="0.7589" style="stop-color:#FFD549"/>
						<stop  offset="1" style="stop-color:#FFD849"/>
					</linearGradient>
					<path class="st59" d="M222.2,144c8.4-1.8,17.4-1.9,17.4-1.9l1.8-1.4c-12.7-0.3-23.6,0.9-26.6,4.7c-1.1,1.4-0.9,3.6-0.2,5.9
						C214.7,149.8,215.4,145.4,222.2,144z"/>
					<linearGradient id="SVGID_44_" gradientUnits="userSpaceOnUse" x1="342.6508" y1="154.9183" x2="375.8963" y2="125.9625">
						<stop  offset="0.2324" style="stop-color:#FF8549"/>
						<stop  offset="0.3359" style="stop-color:#FFA840"/>
						<stop  offset="0.4527" style="stop-color:#FEC737"/>
						<stop  offset="0.5747" style="stop-color:#FEE030"/>
						<stop  offset="0.7021" style="stop-color:#FEF12C"/>
						<stop  offset="0.8386" style="stop-color:#FEFC29"/>
						<stop  offset="1" style="stop-color:#FEFF28"/>
					</linearGradient>
					<path class="st60" d="M363.8,140.2c0.3,5.4-10.8,11.9-17.6,12.2c-6.7,0.4-9-3.4-9-3.4c-2.2,2.1-6.4,7.4-7,8.1l7.5-6.1
						c0,0,3.6,4.7,11.1,4c7.5-0.7,14.5-6.8,16.4-10.4c1.7-3.2-0.7-5-2.3-5.8C363.5,139.3,363.8,139.7,363.8,140.2z"/>
					<linearGradient id="SVGID_45_" gradientUnits="userSpaceOnUse" x1="323.6088" y1="136.8681" x2="342.6445" y2="158.5849">
						<stop  offset="0" style="stop-color:#FEFF28"/>
						<stop  offset="0.1614" style="stop-color:#FEFC29"/>
						<stop  offset="0.2979" style="stop-color:#FEF12C"/>
						<stop  offset="0.4253" style="stop-color:#FEE030"/>
						<stop  offset="0.5473" style="stop-color:#FEC737"/>
						<stop  offset="0.6641" style="stop-color:#FFA840"/>
						<stop  offset="0.7676" style="stop-color:#FF8549"/>
					</linearGradient>
					<path class="st61" d="M335.6,146.6l0.6-1.3c-4.5-4.1-7.6-8.2-7.6-8.2l-5.8,4.9c0,0,1.7,0.3,3.3,1.7c0.7-0.7,2.8-2.9,3.7-3.8
						C329.9,140,333.9,144.8,335.6,146.6z"/>
					<path class="st54" d="M325.5,147.3c-2-5.7-20.5-5.3-22.2-5.3l-1.9,0.4c0,0,25.4,0,23.7,9.7C325.7,150.3,326,148.6,325.5,147.3z
						"/>
					<linearGradient id="SVGID_46_" gradientUnits="userSpaceOnUse" x1="296.1865" y1="163.506" x2="306.9109" y2="139.9124">
						<stop  offset="0" style="stop-color:#E02626"/>
						<stop  offset="7.286666e-02" style="stop-color:#E5362C"/>
						<stop  offset="0.2864" style="stop-color:#F3603C"/>
						<stop  offset="0.4544" style="stop-color:#FC7945"/>
						<stop  offset="0.5547" style="stop-color:#FF8349"/>
						<stop  offset="1" style="stop-color:#FDFF27"/>
					</linearGradient>
					<path class="st62" d="M305.5,152.6c0.2-3.2-3.4-4.7-5.1-5.3c1.5,0.5,2.6,1.3,2.9,2.2c1.3,4.1-10.6,11.4-10.6,11.4l4.2,0.8
						C299.4,160.2,305.3,156,305.5,152.6z"/>
					<linearGradient id="SVGID_47_" gradientUnits="userSpaceOnUse" x1="325.323" y1="135.7588" x2="304.8127" y2="93.9338">
						<stop  offset="0.35" style="stop-color:#FEFF28"/>
						<stop  offset="0.3585" style="stop-color:#FEFF2D"/>
						<stop  offset="0.4844" style="stop-color:#FEFF77"/>
						<stop  offset="0.5971" style="stop-color:#FFFFB1"/>
						<stop  offset="0.6927" style="stop-color:#FFFFDC"/>
						<stop  offset="0.7674" style="stop-color:#FFFFF5"/>
						<stop  offset="0.812" style="stop-color:#FFFFFF"/>
					</linearGradient>
					<path class="st63" d="M313.3,116.1c2.7,4.7,10.1,11.4,7.8,16.8c1.4-1.8,2-3.6,1.9-5.3c-0.6-5.1-10.2-11.2-10.6-19.6
						c-0.1-1.4,0-2.7,0.1-4C312,107.3,311.4,112.9,313.3,116.1z"/>
					<path class="st54" d="M297.1,134.2c0.5,0.8,0.6,1.6,0.5,2.4c-0.4,2.3-5.3,4.6-11.4,4.2c0,0,0,0,0-0.1c0,0.2,0,0.8,0.1,1.4
						c0,0,6.1,1,10.5-1.9C299.7,138.2,298.4,135.7,297.1,134.2z"/>
					<path class="st54" d="M255.1,118.9c1.2,5.1-0.6,13.2-0.6,13.2l1.8-0.2C257,123.2,255.2,119.2,255.1,118.9z"/>
					<path class="st54" d="M250.6,137.4c-2-0.4-7.1-0.9-4.5-5.1c-1,1.5-1.8,3.7-0.3,5.4c1.7,2,10,2.3,12.4,2.4
						c0.3-1,0.4-1.8,0.4-1.8S252.7,137.9,250.6,137.4z"/>
					<path class="st64" d="M236.8,148.2c0-0.2,0-0.7,0.3-1.3c-0.6,0.8-0.1,3.8-0.1,3.8c12,0.1,25.2,1.9,27.9,2.3
						c-0.2-0.9-0.3-1.4-0.3-1.4C246.5,148.6,236.8,148.2,236.8,148.2z"/>
					<path class="st54" d="M207.3,135.7l13.7-0.1c0,0,0.8,0.9,1.6,2.1l0.7-0.3c-1.2-2.4-2.5-4.5-2.5-4.5l-13.3,0.1c0,0,0,0,0,0l0,0
						C207.5,133,207.4,134.4,207.3,135.7z"/>
					<linearGradient id="SVGID_48_" gradientUnits="userSpaceOnUse" x1="205.7328" y1="141.6018" x2="207.3415" y2="151.7899">
						<stop  offset="5.582453e-02" style="stop-color:#FEFF28"/>
						<stop  offset="0.2734" style="stop-color:#FED132"/>
						<stop  offset="0.4944" style="stop-color:#FFA93B"/>
						<stop  offset="0.6969" style="stop-color:#FF8C41"/>
						<stop  offset="0.8721" style="stop-color:#FF7A45"/>
						<stop  offset="1" style="stop-color:#FF7446"/>
					</linearGradient>
					<path class="st65" d="M206.9,144.2c0,0-0.8,5.9,0.5,12.8l1.5-0.3C207.2,151.2,206.9,144.2,206.9,144.2z"/>
					<linearGradient id="SVGID_49_" gradientUnits="userSpaceOnUse" x1="158.7771" y1="142.5707" x2="163.7429" y2="153.8298">
						<stop  offset="0" style="stop-color:#FFDC49"/>
						<stop  offset="1" style="stop-color:#F4831C;stop-opacity:0"/>
					</linearGradient>
					<path class="st66" d="M159.9,143.1c0,0,0.1,0,0.1,0c-1.1,0.1-1.8,0.2-1.8,0.2c1.4,3.9,3.6,9,4.2,10.3c1.5-0.2,2.3-0.3,2.3-0.3
						C161.8,148.1,159.9,143.1,159.9,143.1z"/>
					<linearGradient id="SVGID_50_" gradientUnits="userSpaceOnUse" x1="161.9909" y1="170.0992" x2="173.19" y2="143.6787">
						<stop  offset="0" style="stop-color:#FF5D47"/>
						<stop  offset="0.4082" style="stop-color:#FF5F47"/>
						<stop  offset="0.5552" style="stop-color:#FF6645"/>
						<stop  offset="0.66" style="stop-color:#FF7143"/>
						<stop  offset="0.7448" style="stop-color:#FF8240"/>
						<stop  offset="0.8174" style="stop-color:#FF983C"/>
						<stop  offset="0.8817" style="stop-color:#FEB436"/>
						<stop  offset="0.9398" style="stop-color:#FED430"/>
						<stop  offset="0.9915" style="stop-color:#FEF829"/>
						<stop  offset="1" style="stop-color:#FEFF28"/>
					</linearGradient>
					<path class="st67" d="M171.4,146.8c-0.3,4.4-6.1,13.2-6.1,13.2l1.6,0C168.2,157.7,171.5,151.2,171.4,146.8z"/>
					<path class="st54" d="M180.1,137.2c-7,0.6-11.1,0.5-11.7,0.4l2,1c0,0,1,0.2,7.8-0.2c6.6-0.4,14.9,0.1,15.4,5.5
						c0.2-0.5,0.2-1.1,0.3-1.5C194.3,136.8,187.6,136.6,180.1,137.2z"/>
					<path class="st54" d="M164.3,129.1c0.4,0.5,0.7,1.1,0.7,1.6c0.1,2.4-3.9,4-8.2,3.1c0,0,0,0,0-0.1l-0.2,1.9c0,0,5.6,0.8,8.2-1.9
						C166.5,132.2,165.3,130.3,164.3,129.1z"/>
					<linearGradient id="SVGID_51_" gradientUnits="userSpaceOnUse" x1="34.8109" y1="153.5056" x2="71.8099" y2="145.4624">
						<stop  offset="4.899739e-03" style="stop-color:#FFFF47"/>
						<stop  offset="0.2178" style="stop-color:#FFF647"/>
						<stop  offset="0.564" style="stop-color:#FFDE49"/>
						<stop  offset="0.6349" style="stop-color:#FFD849"/>
						<stop  offset="1" style="stop-color:#FFDE49"/>
					</linearGradient>
					<path class="st68" d="M44.9,151.1c22.3,6.9,28.9-2.5,30.4-5.7c-2.8,5.2-13,8.2-31.8,1.8l0.6,2.4c0,0-3.9-0.8-8.1-2.4l0.3,4
						c2.9,0.6,9.1,1.8,9.1,1.8L44.9,151.1z"/>
					<linearGradient id="SVGID_52_" gradientUnits="userSpaceOnUse" x1="64.4749" y1="162.1471" x2="73.8816" y2="109.3386">
						<stop  offset="0" style="stop-color:#E02726;stop-opacity:0.5"/>
						<stop  offset="5.271357e-02" style="stop-color:#E54A26;stop-opacity:0.5264"/>
						<stop  offset="0.1261" style="stop-color:#EB7427;stop-opacity:0.5631"/>
						<stop  offset="0.2058" style="stop-color:#F09A27;stop-opacity:0.6029"/>
						<stop  offset="0.2909" style="stop-color:#F4B927;stop-opacity:0.6455"/>
						<stop  offset="0.3829" style="stop-color:#F8D328;stop-opacity:0.6914"/>
						<stop  offset="0.4845" style="stop-color:#FBE728;stop-opacity:0.7422"/>
						<stop  offset="0.6008" style="stop-color:#FDF428;stop-opacity:0.8004"/>
						<stop  offset="0.7448" style="stop-color:#FEFD28;stop-opacity:0.8724"/>
						<stop  offset="1" style="stop-color:#FEFF28"/>
					</linearGradient>
					<path class="st69" d="M94,127.5c-10.6-4.4-39.9,7-50.5,4.9c-5.4-1.1-4.3-4.2-1.4-8.4c-1.7,2.2-7.4,10.4-1.2,11.2
						c7.2,0.8,18.4-2.2,25.7-3.4c7.3-1.3,22.4-4.6,27.1-0.3c4.6,4.1,5.4,18.5-1.4,34.1C99.7,153.9,102.8,131.1,94,127.5z"/>
					<linearGradient id="SVGID_53_" gradientUnits="userSpaceOnUse" x1="375.6985" y1="109.0619" x2="384.9281" y2="109.0619">
						<stop  offset="0" style="stop-color:#FFFFFF"/>
						<stop  offset="3.465009e-02" style="stop-color:#FFFFEA"/>
						<stop  offset="0.1199" style="stop-color:#FFFFBD"/>
						<stop  offset="0.2111" style="stop-color:#FFFF95"/>
						<stop  offset="0.3069" style="stop-color:#FEFF73"/>
						<stop  offset="0.4086" style="stop-color:#FEFF58"/>
						<stop  offset="0.5183" style="stop-color:#FEFF43"/>
						<stop  offset="0.6399" style="stop-color:#FEFF34"/>
						<stop  offset="0.7829" style="stop-color:#FEFF2B"/>
						<stop  offset="1" style="stop-color:#FEFF28"/>
					</linearGradient>
					<path class="st70" d="M381.7,124.4c2.1,0.2,3.2,0.2,3.2,0.2c-8.6-11.5-9.4-23.2-8.6-31C375.2,101,374.8,113.4,381.7,124.4z"/>
					<path class="st55" d="M377.6,86.9c0.5-1.9,1-3,1-3l-10.2,0.2c-0.3,0.6-0.6,1.1-0.9,1.6L377.6,86.9z"/>
					<path class="st55" d="M325.8,102.8c6.4-5.5,22.2-17.7,19.5-34.2c0,0,15.4,3.1,24.8,7.1c0-1,0-1.5,0-1.5
						c-12.2-4.9-27.2-8.3-27.2-8.3c3,17.2-14.4,29.3-20.2,35.5c-5.8,6.2-5.9,11.6-5.9,11.6c0.5,1.1,1.2,2.2,2,3.2
						C319,114.5,320.2,107.6,325.8,102.8z"/>
					<linearGradient id="SVGID_54_" gradientUnits="userSpaceOnUse" x1="298.5068" y1="90.3968" x2="276.9911" y2="164.9982">
						<stop  offset="0" style="stop-color:#FFFFFF"/>
						<stop  offset="6.276120e-02" style="stop-color:#FFFFF5"/>
						<stop  offset="0.1679" style="stop-color:#FFFFDC"/>
						<stop  offset="0.3023" style="stop-color:#FFFFB1"/>
						<stop  offset="0.4609" style="stop-color:#FEFF77"/>
						<stop  offset="0.6381" style="stop-color:#FEFF2D"/>
						<stop  offset="0.65" style="stop-color:#FEFF28"/>
					</linearGradient>
					<path class="st71" d="M288,89.9c-1.2,3.6-1.1,9.9-1.1,9.9c-3.5,0.6-10.2,2.1-10.2,2.1c-1.8,13.9-6.3,24.8-8.2,28.9
						c2.7-5,8.6-16.6,9.5-26.3l10.5-2.8c0,0-0.3-5.2,1.1-9.1c0,0,13.7,0.2,25,3.8c0.8-1.9,1.6-3.1,1.6-3.1
						C300.9,89.4,288,89.9,288,89.9z"/>
					<path class="st55" d="M262.7,92.8c0.3-1.1,0.4-1.9,0.4-1.9c-11.4-2.3-25.4-2.8-25.4-2.8c0.5,0.9,0.9,1.9,1.2,2.8
						C240.1,90.9,249.9,90.9,262.7,92.8z"/>
					<path class="st55" d="M239.6,93.2c2.5,11.1-4,22.3-4,22.3c0.2,0.8,0.5,1.6,0.8,2.4C237,116.9,243.4,106.3,239.6,93.2z"/>
					<path class="st54" d="M239.8,125.7c0,0-0.2-0.4-0.6-1.1l-8.5,2c-2.4,3.5-2.6,6.1-1.6,8.1c0.1-1,0.4-4.1,2.4-6.4L239.8,125.7z"/>
					<path class="st55" d="M203.7,99.6c0,0-0.7-1.3-1.3-3c0.2,0.5,0.3,0.8,0.3,0.8c-2.6-2.7-4.5-4.1-4.5-4.1
						c-8.5,1.3-19.4,3.5-19.4,3.5c0.6,0.6,1.2,1.3,1.9,2.2l17.7-2.1C198.4,96.9,201.5,98.1,203.7,99.6z"/>
					<path class="st55" d="M230.5,92.9c0.5-2,0.9-3.1,0.9-3.1c-14.1-1-29.9,0-29.9,0c0,0.9,0,1.7,0.1,2.5
						C203,92.1,219.1,91.4,230.5,92.9z"/>
					<linearGradient id="SVGID_55_" gradientUnits="userSpaceOnUse" x1="239.9613" y1="127.6198" x2="232.5289" y2="111.4606">
						<stop  offset="0.25" style="stop-color:#FEFF28"/>
						<stop  offset="0.2637" style="stop-color:#FEFF2D"/>
						<stop  offset="0.4681" style="stop-color:#FEFF77"/>
						<stop  offset="0.6511" style="stop-color:#FFFFB1"/>
						<stop  offset="0.8063" style="stop-color:#FFFFDC"/>
						<stop  offset="0.9276" style="stop-color:#FFFFF5"/>
						<stop  offset="1" style="stop-color:#FFFFFF"/>
					</linearGradient>
					<path class="st72" d="M229.8,96.4c-1.2,5.6-2.5,16.9,4.4,26.7l1.5-0.2C229,113,228.9,102.8,229.8,96.4z"/>
					<path class="st55" d="M171.2,91c0.6-1.1,1.1-1.8,1.1-1.8c-15.3-1.6-29.5-0.6-29.5-0.6c0,1.1,0,2.1,0.1,2.8
						C144.4,91.3,157.8,89.8,171.2,91z"/>
					<linearGradient id="SVGID_56_" gradientUnits="userSpaceOnUse" x1="198.7085" y1="138.7958" x2="170.2831" y2="106.0962">
						<stop  offset="0.35" style="stop-color:#FEFF28"/>
						<stop  offset="0.3619" style="stop-color:#FEFF2D"/>
						<stop  offset="0.5391" style="stop-color:#FEFF77"/>
						<stop  offset="0.6977" style="stop-color:#FFFFB1"/>
						<stop  offset="0.8321" style="stop-color:#FFFFDC"/>
						<stop  offset="0.9372" style="stop-color:#FFFFF5"/>
						<stop  offset="1" style="stop-color:#FFFFFF"/>
					</linearGradient>
					<path class="st73" d="M170.6,108.6c-2.8-4.6-2.5-9.2-1.5-12.8c-1.7,4.4-3,10.9,1,15.9c6.5,8.1,14.5,12.7,13.6,18.9
						c0.5-0.8,0.8-1.6,0.9-2.5C185.3,120.4,176.4,118.2,170.6,108.6z"/>
					<path class="st55" d="M143.3,94c-4.4-0.2-7.7-0.4-10.8-0.8c0.2,1.2,0.3,2.2,0.4,3l11.2-0.2C144.1,96,143.6,95.2,143.3,94z"/>
					<path class="st55" d="M101.9,106.2c-5.3,1.3-11.1,3.1-11.1,3.1c0.3,0.6,0.4,1.3,0.5,2.1c1.1-0.3,4.9-1.5,7.9-2.5
						C99.9,108.3,101.2,106.9,101.9,106.2z"/>
					<path class="st55" d="M139.4,101.6c-6.8-1.4-19.6-3.1-19.6-3.1c-0.3,1-0.7,2-0.9,3.1c3.1,0.1,13.2,0.4,19.6,1.7
						C139,102.2,139.4,101.6,139.4,101.6z"/>
					<linearGradient id="SVGID_57_" gradientUnits="userSpaceOnUse" x1="139.1332" y1="157.7544" x2="134.3072" y2="120.9565">
						<stop  offset="0" style="stop-color:#FF7647"/>
						<stop  offset="0.2994" style="stop-color:#ED8D26"/>
						<stop  offset="0.3939" style="stop-color:#F2AE27"/>
						<stop  offset="0.5352" style="stop-color:#F8DA27"/>
						<stop  offset="0.6452" style="stop-color:#FCF528"/>
						<stop  offset="0.7097" style="stop-color:#FEFF28"/>
					</linearGradient>
					<path class="st74" d="M137.5,105.4c-3.2,6.1-11.4,25.5-1.7,53.3c1.3,0,2.1,0,2.1,0C128.5,132.1,134.2,113.1,137.5,105.4z"/>
					<linearGradient id="SVGID_58_" gradientUnits="userSpaceOnUse" x1="103.887" y1="90.2472" x2="94.8785" y2="142.949">
						<stop  offset="4.899739e-03" style="stop-color:#FFFFFF"/>
						<stop  offset="0.3631" style="stop-color:#FFFFFD"/>
						<stop  offset="0.4504" style="stop-color:#FFFFD9"/>
						<stop  offset="0.6484" style="stop-color:#FEFF8E"/>
						<stop  offset="0.8125" style="stop-color:#FEFF57"/>
						<stop  offset="0.9341" style="stop-color:#FEFF35"/>
						<stop  offset="1" style="stop-color:#FEFF28"/>
					</linearGradient>
					<path class="st75" d="M108.7,107.1l2.9-0.4c0,0,0,6.7-2.5,16.3c-2.5,9.6-3.3,17.4,1.3,20.9c4.3,3.4,7.1-2.9,8-6.1
						c-0.5,1.5-2.3,5.5-5.7,3.3c-4.2-2.7-4.1-11.1-1.7-20.9c2.4-9.8,2.4-16.2,2.4-16.2c-1.7,0.2-3.2,0.5-3.2,0.5
						c0.3-9.1-2.6-14-2.6-14c-12.8-0.2-27.2,3.1-27.2,3.1c0.9,1,1.6,2,2.3,2.9c3.1-0.9,12.7-3.6,23.1-3.6
						C105.8,93.1,109.1,98.5,108.7,107.1z"/>
					<path class="st55" d="M70.7,79.1c0,0-4.9-2.5-13.1-5.8c0,0-0.6,1.3-1.4,3.2c0.4,0.2,5.4,2.3,12,6.2c0,0-4.1,22.1,10.1,33.2
						l5.7-2.3C83.9,113.5,66.5,107.1,70.7,79.1z"/>
					<path class="st55" d="M53.1,84.8c0,0,0.5-1.6,1.2-3.5c0-0.6,0-10.7-2.8-16.2c0,0-14.9,4.4-28.3,9.9c0,0,0.2,0.4,0.5,1.2
						c1.6-0.5,15.3-4.9,25.4-7.6C49.1,68.7,51.2,73.3,53.1,84.8z"/>
					<path class="st55" d="M273.3,94.4c-3.4,0.7-7.7,1.5-11.5,2.2l-0.3,1.3l11.8-0.5C273.4,95.4,273.3,94.4,273.3,94.4z"/>
					<linearGradient id="SVGID_59_" gradientUnits="userSpaceOnUse" x1="163.5548" y1="137.7571" x2="167.7104" y2="151.8999">
						<stop  offset="8.960462e-02" style="stop-color:#EA7726;stop-opacity:0"/>
						<stop  offset="0.1806" style="stop-color:#EC8225;stop-opacity:0.2217"/>
						<stop  offset="0.321" style="stop-color:#EE8C23;stop-opacity:0.5638"/>
						<stop  offset="0.5" style="stop-color:#EF8F23"/>
						<stop  offset="0.6342" style="stop-color:#EE8B23;stop-opacity:0.7315"/>
						<stop  offset="0.7582" style="stop-color:#ED8024;stop-opacity:0.4836"/>
						<stop  offset="0.8782" style="stop-color:#E96D25;stop-opacity:0.2437"/>
						<stop  offset="0.995" style="stop-color:#E55326;stop-opacity:1.003873e-02"/>
						<stop  offset="1" style="stop-color:#E55226;stop-opacity:0"/>
					</linearGradient>
					<path class="st76" d="M172.2,144c-2.5-4-11.6-2.1-14.2-1.6c0.2,0.7,0.5,1.4,0.3,0.9c0,0,0.7-0.1,1.8-0.2c0,0,0,0,0,0
						c2-0.3,8.9-1,11,2c1,1.5-0.2,4.9-1.8,8.1C170.6,152,174.6,147.8,172.2,144z"/>
					<linearGradient id="SVGID_60_" gradientUnits="userSpaceOnUse" x1="193.1228" y1="147.4998" x2="199.4266" y2="147.4998">
						<stop  offset="0.196" style="stop-color:#F57C1A"/>
						<stop  offset="0.6571" style="stop-color:#ED7722;stop-opacity:0.2248"/>
						<stop  offset="0.7907" style="stop-color:#EA7526;stop-opacity:0"/>
					</linearGradient>
					<path class="st77" d="M194.5,153.7c0,0,4.4-6,4.9-11.8l-1.9-0.7c0.4,5.6-4.4,12.6-4.4,12.6L194.5,153.7z"/>
					<linearGradient id="SVGID_61_" gradientUnits="userSpaceOnUse" x1="210.2204" y1="155.1092" x2="187.2524" y2="157.2988">
						<stop  offset="0.1418" style="stop-color:#EA7526;stop-opacity:0"/>
						<stop  offset="0.4983" style="stop-color:#F27A1D;stop-opacity:0.4154"/>
						<stop  offset="1" style="stop-color:#F57C1A"/>
					</linearGradient>
					<path class="st78" d="M193.1,153.8c0.9,2.6,2,5.7,2,5.7l13.8-2.7c-0.2-0.7-0.4-1.3-0.5-2l-12.5,3.1c0,0-1.1-3.7-1.3-4.2
						L193.1,153.8z"/>
					<linearGradient id="SVGID_62_" gradientUnits="userSpaceOnUse" x1="165.2833" y1="159.1206" x2="183.5205" y2="159.1206">
						<stop  offset="5.582453e-02" style="stop-color:#EF631D;stop-opacity:0"/>
						<stop  offset="1" style="stop-color:#EF631D"/>
					</linearGradient>
					<path class="st79" d="M182.4,158.6l-14.5-0.4c-0.4,0.8-0.7,1.4-1,1.9l-1.6,0l18.2-0.4L182.4,158.6z"/>
					<linearGradient id="SVGID_63_" gradientUnits="userSpaceOnUse" x1="182.424" y1="149.8377" x2="193.7477" y2="149.8377">
						<stop  offset="0" style="stop-color:#EF631D"/>
						<stop  offset="0.3539" style="stop-color:#EF691E"/>
						<stop  offset="0.8373" style="stop-color:#EF7B22"/>
						<stop  offset="0.8437" style="stop-color:#EF7B22"/>
					</linearGradient>
					<path class="st80" d="M183.5,159.7c0,0,8.6-9.7,10.2-15.7c-0.2-1.8-1.3-3.1-2.8-4c1.3,1.5,1.4,2.1,1.3,3.4
						c-0.2,1.4-1,4.5-4.5,9c-3.6,4.5-5.2,6.2-5.2,6.2L183.5,159.7z"/>
					<linearGradient id="SVGID_64_" gradientUnits="userSpaceOnUse" x1="215.8994" y1="145.8491" x2="205.175" y2="150.0048">
						<stop  offset="0.1163" style="stop-color:#F09724"/>
						<stop  offset="0.5375" style="stop-color:#F5A82C;stop-opacity:0.4579"/>
						<stop  offset="0.8933" style="stop-color:#F7B231;stop-opacity:0"/>
					</linearGradient>
					<path class="st81" d="M223.3,137.4l-0.7,0.3c-0.8-1.2-1.6-2.1-1.6-2.1l0,0c0.6,0.8,0.9,1.6,0.9,1.6l-16.4,5.4
						c-0.2,2.5-0.2,11,0.3,14.8l3.1-0.6c-1.7-5.6-2-12.6-2-12.6L223.3,137.4z"/>
					<linearGradient id="SVGID_65_" gradientUnits="userSpaceOnUse" x1="215.1631" y1="152.5752" x2="219.4931" y2="154.6348">
						<stop  offset="5.582453e-02" style="stop-color:#EF631D;stop-opacity:0"/>
						<stop  offset="0.4808" style="stop-color:#F3721B;stop-opacity:0.5428"/>
						<stop  offset="0.8388" style="stop-color:#F5781A"/>
					</linearGradient>
					<path class="st82" d="M219.5,157.9c0,0-3.2-4.5-3.8-10c-0.9,1.4-1,2.7-1,3.5c1.3,3.9,4,7.9,4,7.9L219.5,157.9z"/>
					<linearGradient id="SVGID_66_" gradientUnits="userSpaceOnUse" x1="241.0203" y1="150.5861" x2="243.2322" y2="165.4661">
						<stop  offset="0" style="stop-color:#F5781A"/>
						<stop  offset="0.261" style="stop-color:#F57E1A"/>
						<stop  offset="0.4149" style="stop-color:#F5841A"/>
						<stop  offset="0.5198" style="stop-color:#F1711C"/>
						<stop  offset="0.6477" style="stop-color:#EE611E"/>
						<stop  offset="0.7943" style="stop-color:#ED5820"/>
						<stop  offset="1" style="stop-color:#EC5520"/>
					</linearGradient>
					<path class="st83" d="M264,156.5c0,0-7.1-0.9-20.7-0.6c-13.6,0.2-23.8,2-23.8,2l-0.8,1.4c24-3.7,47-0.3,47-0.3
						c-0.1-0.8-0.2-1.6-0.3-2.3L264,156.5z"/>
					<linearGradient id="SVGID_67_" gradientUnits="userSpaceOnUse" x1="279.0212" y1="158.2871" x2="275.2677" y2="122.8967">
						<stop  offset="0" style="stop-color:#F67818"/>
						<stop  offset="0.8437" style="stop-color:#F67818;stop-opacity:0"/>
					</linearGradient>
					<path class="st84" d="M284.9,144.5c-0.8,3.2,0,8.7,0,8.7c-1.6,0.5-8.6,1.4-8.6,1.4c-5.8-11.6-7.1-21.7-7.1-21.7
						s8.2-16.6,8.8-28.4c0.1-1.1,0.1-2.1,0.1-2.9c-0.9,0.2-1.5,0.3-1.5,0.3c-2.3,17.8-9,30.7-9,30.7c1.7,12.5,7.1,23.6,7.1,23.6
						c7.7-0.8,12.3-0.7,12.3-0.7c-0.8-6.2-0.7-9.7-0.7-9.7L284.9,144.5z"/>
					<linearGradient id="SVGID_68_" gradientUnits="userSpaceOnUse" x1="306.5199" y1="147.5449" x2="276.2236" y2="146.0703">
						<stop  offset="4.899497e-02" style="stop-color:#F67818;stop-opacity:0"/>
						<stop  offset="0.4604" style="stop-color:#F26F1C;stop-opacity:0.4326"/>
						<stop  offset="1" style="stop-color:#F0691E"/>
					</linearGradient>
					<path class="st85" d="M286.3,145.8c0,0,15.5-0.4,17,3.7l3.6-0.5c0,0-2.3-4.2-22-4.5L286.3,145.8z"/>
					<linearGradient id="SVGID_69_" gradientUnits="userSpaceOnUse" x1="264.8195" y1="156.9669" x2="263.613" y2="153.2468">
						<stop  offset="0" style="stop-color:#EE601F"/>
						<stop  offset="1" style="stop-color:#EF631D;stop-opacity:0"/>
					</linearGradient>
					<path class="st86" d="M263.3,152.7c0,0,0.8,1.5,0.7,6c1.1,0.1,1.7,0.2,1.7,0.2c-0.3-2.6-0.6-4.7-0.9-6L263.3,152.7z"/>
					<linearGradient id="SVGID_70_" gradientUnits="userSpaceOnUse" x1="328.2491" y1="142.526" x2="327.0426" y2="165.3152">
						<stop  offset="0.1563" style="stop-color:#F67818;stop-opacity:0"/>
						<stop  offset="1" style="stop-color:#F67818"/>
					</linearGradient>
					<path class="st87" d="M329.5,160.1L327,159c5.4-11.5,1.8-15.4,0.4-16.3c-0.5,0.5-0.9,0.9-1.1,1.2c0.7,0.6,1.4,1.5,1.9,2.6
						c1.8,3.9-3,13.1-3,13.1l3,1.4L329.5,160.1z"/>
					<linearGradient id="SVGID_71_" gradientUnits="userSpaceOnUse" x1="354.5027" y1="159.759" x2="384.5309" y2="130.5351">
						<stop  offset="0" style="stop-color:#F57419"/>
						<stop  offset="0.3993" style="stop-color:#F4771A;stop-opacity:0.8004"/>
						<stop  offset="0.7211" style="stop-color:#F2811E;stop-opacity:0.6394"/>
						<stop  offset="1" style="stop-color:#EE9125;stop-opacity:0.5"/>
					</linearGradient>
					<path class="st88" d="M328.2,161c-0.7,1-1.5,2.7-1.5,2.7c5.2,2.2,5.9,4.4,12.9,7c7,2.6,21-0.8,33.2-7.6
						c11.5-6.5,22.4-17,21.3-24.4c0,0.1,0,0.3,0,0.4c-0.4-1.1-1.6-3.2-5.7-4.3c2,1.8,3.1,3.8,2.9,6.1c-1.1,11.1-17.7,19.7-24.7,23.4
						c-7,3.7-17.8,6.3-22.7,5.9c-4.9-0.4-9.8-4.4-10.8-5.1c-1-0.7-1.7-1.1-4.5-2.5c0,0,0.3-1.4,0.9-2.5L328.2,161z"/>
					<linearGradient id="SVGID_72_" gradientUnits="userSpaceOnUse" x1="64.9213" y1="66.688" x2="81.544" y2="63.3366">
						<stop  offset="0" style="stop-color:#F8A71E;stop-opacity:0.5"/>
						<stop  offset="0.5" style="stop-color:#F8A71E"/>
						<stop  offset="1" style="stop-color:#F8A71E;stop-opacity:0.5"/>
					</linearGradient>
					<path class="st89" d="M67.5,67.1c-1.3-1-2.6-1.8-3.7-2.5c-0.7,0.3-1.4,0.5-2,0.8c-0.1-0.1-0.2-0.1-0.3-0.2c1.7,1,3.9,2.3,6,3.4
						l15-7.3l0.4-0.3c-0.1-0.1-0.3-0.2-0.5-0.4C78.7,62.4,72.1,65.3,67.5,67.1z"/>
					<linearGradient id="SVGID_73_" gradientUnits="userSpaceOnUse" x1="89.7526" y1="79.5382" x2="126.2154" y2="50.0462">
						<stop  offset="0" style="stop-color:#F38F20"/>
						<stop  offset="0.1752" style="stop-color:#F57C1A"/>
						<stop  offset="0.8437" style="stop-color:#F57C1A;stop-opacity:0"/>
					</linearGradient>
					<path class="st90" d="M130.9,63.6c-4.6,9-10.1,13.5-16.4,17.1c-6.4,3.7-15.3,3.8-21.5,0.3c-5.8-3.2-16-11.5-17.6-12.8
						c-0.5,0.5-0.9,1-1.3,1.4c-0.5-0.4-0.9-0.7-1-0.8c1.3,1,11.5,9.2,18.4,13.4c7.4,4.5,21.6,5.4,33.9-7.5c1.7-1.8,3.1-3.4,4.1-5
						C130.6,67.3,131.1,65.3,130.9,63.6z"/>
					<linearGradient id="SVGID_74_" gradientUnits="userSpaceOnUse" x1="185.3548" y1="77.054" x2="200.9052" y2="57.2139">
						<stop  offset="0.2448" style="stop-color:#F67E19"/>
						<stop  offset="0.261" style="stop-color:#F6831A;stop-opacity:0.9786"/>
						<stop  offset="0.4303" style="stop-color:#F9AF1F;stop-opacity:0.7544"/>
						<stop  offset="0.5934" style="stop-color:#FBD223;stop-opacity:0.5384"/>
						<stop  offset="0.7467" style="stop-color:#FDEB26;stop-opacity:0.3354"/>
						<stop  offset="0.8864" style="stop-color:#FEFA27;stop-opacity:0.1504"/>
						<stop  offset="1" style="stop-color:#FEFF28;stop-opacity:0"/>
					</linearGradient>
					<path class="st91" d="M168.3,73.2c25.5,5.7,40.3,4.2,42.8-4.4c0.1-0.4,0.2-0.7,0.3-1c0.1-2.7-1.2-4.7-3.3-6.2
						c1.1,1.9,1.7,4.4,0.3,7.3c-2.9,6.1-9.5,6.5-17.1,6.4c-7.7-0.1-21.3-3.6-21.3-3.6L168.3,73.2z"/>
					<linearGradient id="SVGID_75_" gradientUnits="userSpaceOnUse" x1="166.6279" y1="72.9626" x2="170.6496" y2="58.2166">
						<stop  offset="0.2448" style="stop-color:#F67E19"/>
						<stop  offset="0.261" style="stop-color:#F6831A;stop-opacity:0.9786"/>
						<stop  offset="0.4303" style="stop-color:#F9AF1F;stop-opacity:0.7544"/>
						<stop  offset="0.5934" style="stop-color:#FBD223;stop-opacity:0.5384"/>
						<stop  offset="0.7467" style="stop-color:#FDEB26;stop-opacity:0.3354"/>
						<stop  offset="0.8864" style="stop-color:#FEFA27;stop-opacity:0.1504"/>
						<stop  offset="1" style="stop-color:#FEFF28;stop-opacity:0"/>
					</linearGradient>
					<path class="st92" d="M170,71.8l-1.5-11.3l2.6-7.7l-1.7,0.4c0.1-0.3,0.2-0.7,0.4-1c-1.6,4.3-2.9,8.7-2.9,8.7
						c0.3,4,1.4,12.3,1.4,12.3L170,71.8z"/>
					<linearGradient id="SVGID_76_" gradientUnits="userSpaceOnUse" x1="206.4771" y1="73.4934" x2="209.6944" y2="53.1171">
						<stop  offset="0.2448" style="stop-color:#F78119"/>
						<stop  offset="0.2507" style="stop-color:#F78319;stop-opacity:0.9923"/>
						<stop  offset="0.4223" style="stop-color:#FAAF1E;stop-opacity:0.7649"/>
						<stop  offset="0.5877" style="stop-color:#FBD223;stop-opacity:0.5459"/>
						<stop  offset="0.7432" style="stop-color:#FDEB26;stop-opacity:0.3401"/>
						<stop  offset="0.8848" style="stop-color:#FEFA27;stop-opacity:0.1525"/>
						<stop  offset="1" style="stop-color:#FEFF28;stop-opacity:0"/>
					</linearGradient>
					<path class="st93" d="M214.3,73.7c0,0,3.9-8.1,1-13.2c-2.9-5.1-11.8-4.8-11.8-4.8c6.7-3.3,2.8-9.2,2.1-10.1
						c0.8,1.4,1.3,2.8,1.1,4.6c-0.5,5-6.2,5.9-6.2,5.9c23.3-0.2,11.8,19.2,11.8,19.2L214.3,73.7z"/>
					<linearGradient id="SVGID_77_" gradientUnits="userSpaceOnUse" x1="232.572" y1="66.7837" x2="244.771" y2="57.3328">
						<stop  offset="0.1323" style="stop-color:#F78119"/>
						<stop  offset="1" style="stop-color:#F78119;stop-opacity:0"/>
					</linearGradient>
					<path class="st94" d="M237.3,73.8c5.9,1.3,10.2-3.3,11.6-7.3c-0.1,0.2-0.1,0.4-0.2,0.6c1.4-6.6-4-13.7-7.2-20.3
						c-0.2-0.4-0.3-0.8-0.5-1.2c2,5.9,5.8,13.6,6.7,16.4c1.3,3.9-2.9,11.6-10.3,9.5L237.3,73.8z"/>
					<linearGradient id="SVGID_78_" gradientUnits="userSpaceOnUse" x1="223.7433" y1="67.6901" x2="220.3919" y2="50.129">
						<stop  offset="0.1517" style="stop-color:#F78119"/>
						<stop  offset="0.3001" style="stop-color:#F48F1F"/>
						<stop  offset="0.5136" style="stop-color:#F19E25"/>
						<stop  offset="0.6065" style="stop-color:#F39521"/>
						<stop  offset="0.8233" style="stop-color:#F6861B"/>
						<stop  offset="1" style="stop-color:#F78119"/>
					</linearGradient>
					<path class="st95" d="M237.4,71.4c-7.4-2.1-10.6-7.7-14.8-13.7c0,0,1.8,16.9-8.2,16l-2,1.6c12,1.2,11.7-13.5,11.7-13.5
						c4.9,7.7,9.4,11.1,13.3,12L237.4,71.4z"/>
					<linearGradient id="SVGID_79_" gradientUnits="userSpaceOnUse" x1="245.7573" y1="66.1601" x2="243.7465" y2="42.8346">
						<stop  offset="0" style="stop-color:#FEFF28"/>
						<stop  offset="0.2171" style="stop-color:#FEFF2B"/>
						<stop  offset="0.3601" style="stop-color:#FEFF34"/>
						<stop  offset="0.4817" style="stop-color:#FEFF43"/>
						<stop  offset="0.5914" style="stop-color:#FEFF58"/>
						<stop  offset="0.6931" style="stop-color:#FEFF73"/>
						<stop  offset="0.7889" style="stop-color:#FFFF95"/>
						<stop  offset="0.8801" style="stop-color:#FFFFBD"/>
						<stop  offset="0.9653" style="stop-color:#FFFFEA"/>
						<stop  offset="1" style="stop-color:#FFFFFF"/>
					</linearGradient>
					<path class="st96" d="M241.1,44.5c-0.7-1.6-1.2-3.3-1.4-4.9c0.2,2.2,0.6,4.7,1.7,7.1c3.1,6.7,8.6,13.8,7.2,20.3
						c0.3-0.8,0.5-1.6,0.6-2.3C249.9,57.9,244,51.1,241.1,44.5z"/>
					<linearGradient id="SVGID_80_" gradientUnits="userSpaceOnUse" x1="258.5464" y1="65.8177" x2="280.7325" y2="52.4122">
						<stop  offset="0.1323" style="stop-color:#F6921D"/>
						<stop  offset="1" style="stop-color:#F78119;stop-opacity:0"/>
					</linearGradient>
					<path class="st97" d="M266.2,59.9c3.9-1.1,8-1.3,8-1.3l-0.8-0.6c-3.9,0.5-9.3,1-17.6,3.3c0,0,0.8,3.8,3.4,8.2
						c0,0-1.8,0-3.5,0.1l0,1.2c3.1-0.2,5.5-0.3,5.5-0.3c-2.3-3.6-3.5-8.3-3.5-8.3c3-0.9,5.8-1.6,8.2-2.1"/>
					<linearGradient id="SVGID_81_" gradientUnits="userSpaceOnUse" x1="265.3941" y1="53.5023" x2="266.2655" y2="77.8332">
						<stop  offset="0.2349" style="stop-color:#F09724"/>
						<stop  offset="0.3085" style="stop-color:#F29E2A"/>
						<stop  offset="0.413" style="stop-color:#F9B03A"/>
						<stop  offset="0.4841" style="stop-color:#FFC149"/>
						<stop  offset="0.742" style="stop-color:#FAB83B;stop-opacity:0.5"/>
						<stop  offset="1" style="stop-color:#F7B231;stop-opacity:0"/>
					</linearGradient>
					<path class="st98" d="M265.8,60c0.3,1.1,0.5,2.2,0.6,3.3l0,0c0,0.3,0,0.6,0.1,1c0,1,0,1.9-0.1,2.8c-0.1,1.3-0.4,2.6-0.6,3.7
						c-0.6,2.4-1.2,4-1.2,4l0,0c0,0,0,0,0,0c0.7-0.1,1.3-0.1,2-0.1c2.5-8.6-0.3-14.7-0.3-14.7L265.8,60z"/>
					<linearGradient id="SVGID_82_" gradientUnits="userSpaceOnUse" x1="253.8068" y1="71.8254" x2="248.3552" y2="53.2812">
						<stop  offset="0.1323" style="stop-color:#F6921D"/>
						<stop  offset="1" style="stop-color:#F78119;stop-opacity:0"/>
					</linearGradient>
					<path class="st99" d="M255.6,69.6c-1.2,0-2.3,0.1-3,0.2c0,0,2.4-4.6,0.5-10.2c-1.6-4.5-4.5-9.5-6.2-12.7
						c-0.7-1.3-1.3-2.6-1.7-3.7c-0.3,1.1-0.6,1.9-0.7,2.2c-0.1-0.1-0.1-0.3-0.2-0.4c1.4,2.8,4.8,7.7,7.2,13.6
						c2.8,6.9-0.7,12.7-0.7,12.7c1.7-0.2,3.3-0.3,4.8-0.4L255.6,69.6z"/>
					<path class="st54" d="M369.1,131.7c-8.4,0.2-24.2,0.2-27.3-2.8c-0.8-0.8-1.2-1.6-1.3-2.4c-0.5,6.9,11.9,7,16.6,7.3
						c4,0.2,13,0.2,25,0.3c8.8,0.1,11.3,3.2,12,5c-0.1-0.5-0.2-1-0.3-1.5C391.1,130.1,377.5,131.6,369.1,131.7z"/>
					<linearGradient id="SVGID_83_" gradientUnits="userSpaceOnUse" x1="69.3498" y1="174.369" x2="75.3422" y2="151.8478">
						<stop  offset="0" style="stop-color:#F67818"/>
						<stop  offset="0.8437" style="stop-color:#F67818;stop-opacity:0"/>
					</linearGradient>
					<path class="st100" d="M85.3,169.4c-11.1,5.5-33.1-4.5-33.1-4.5l-2,0.7c0,0,26.4,12.2,37,5.6c0.1-0.1,0.2-0.1,0.3-0.2
						c0,0,0.1,0,0.1-0.1c0.1,0,0.1-0.1,0.2-0.1c0,0,0.1,0,0.1-0.1c0.1-0.1,0.1-0.1,0.2-0.2c0,0,0,0,0.1-0.1c0.1-0.1,0.2-0.2,0.3-0.2
						c0,0,0,0,0.1-0.1c0.1-0.1,0.1-0.1,0.2-0.2c0,0,0.1-0.1,0.1-0.1c0.1-0.1,0.1-0.1,0.2-0.2c0,0,0.1-0.1,0.1-0.1
						c0.1-0.1,0.2-0.2,0.2-0.2c0,0,0,0,0,0c0.1-0.1,0.2-0.2,0.3-0.3c0,0,0.1-0.1,0.1-0.1c0.1-0.1,0.1-0.1,0.2-0.2
						c0,0,0.1-0.1,0.1-0.1c0.1-0.1,0.1-0.1,0.2-0.2c0,0,0-0.1,0.1-0.1c0.1-0.1,0.2-0.2,0.3-0.3c0,0,0,0,0-0.1
						c0.1-0.1,0.1-0.2,0.2-0.3c0,0,0.1-0.1,0.1-0.1c0.1-0.1,0.1-0.2,0.2-0.2c0,0,0.1-0.1,0.1-0.1c0.1-0.1,0.1-0.2,0.2-0.3
						c0,0,0,0,0-0.1c0.1-0.1,0.2-0.2,0.3-0.4c0,0,0-0.1,0.1-0.1c0.1-0.1,0.1-0.2,0.2-0.3c0,0,0.1-0.1,0.1-0.1
						c0.1-0.1,0.1-0.2,0.2-0.3c0,0,0-0.1,0.1-0.1c0-0.1,0.1-0.1,0.1-0.2c2-4.7,3.4-9.4,4.2-13.6C94.7,158.7,91.2,166.5,85.3,169.4z"/>
				<path class="st15" d="M387.5,95.7c-2,0-3.6-1.6-3.6-3.6s1.6-3.6,3.6-3.6c2,0,3.6,1.6,3.6,3.6C391.1,94.1,389.5,95.7,387.5,95.7z
					 M387.5,88.8c-1.9,0-3.3,1.5-3.3,3.3c0,1.8,1.4,3.3,3.2,3.3c1.9,0,3.3-1.5,3.3-3.3C390.7,90.3,389.3,88.8,387.5,88.8z
					 M388.3,92.4l1,1.4h-0.9l-0.9-1.3h-0.8v1.3H386v-3.8h1.7c0.9,0,1.5,0.5,1.5,1.2C389.2,91.9,388.8,92.3,388.3,92.4z M387.7,90.7
					h-0.9v1.2h0.9c0.5,0,0.8-0.2,0.8-0.6C388.4,90.9,388.2,90.7,387.7,90.7z"/>
</svg>